<svg width="43" height="53" viewBox="0 0 43 53" fill="none" xmlns="http://www.w3.org/2000/svg">
<path d="M18.5912 17.7895L18.5215 17.7646V11.3206L18.5937 11.2559L18.6186 11.2161L42.4272 26.6486L18.5887 17.7969L18.5912 17.7895ZM18.5912 35.5177L18.5887 35.5102L42.4272 26.6586L18.6161 42.0911L18.5937 42.0562H18.5215V35.5426L18.5912 35.5177Z" fill="#0C0C0C"/>
<path d="M29.5694 1L42.4274 26.6487L18.6187 11.2162L18.5889 11.1962L18.5938 11.1838L29.4922 1.07221L29.5694 1ZM42.4274 26.6586L29.5694 52.3073L29.4972 52.2376L18.5938 42.1236L18.5889 42.1111L18.6163 42.0912L42.4274 26.6586Z" fill="white"/>
<path d="M18.5888 11.1972L18.6187 11.2171L18.5938 11.257H1.15687L1 11.1972L5.35487 1.06323L5.37728 1.07319H29.4922L18.5938 11.1848L18.5888 11.1972ZM18.5938 11.257L18.5216 11.3217V11.257H18.5938ZM18.5938 42.0573L18.6162 42.0922L18.5888 42.1121L18.5938 42.1245L29.4972 52.2386H5.37728L5.35487 52.2486L1 42.1121L1.14691 42.0573H18.4444L18.5216 42.1295V42.0573H18.5938Z" fill="white"/>
<path d="M18.5887 17.797L42.4272 26.6487V26.6586L18.5887 35.5103L18.5912 35.5178L18.5215 35.5427V17.7646L18.5912 17.7895L18.5887 17.797Z" fill="white"/>
<path d="M18.5215 42.0564V42.1286L18.4443 42.0564H18.5215Z" fill="black"/>
<path d="M18.522 35.5427V42.0564H18.4448L13.4849 37.4301L18.522 35.5427Z" fill="black"/>
<path d="M18.5217 35.5202V35.5426L13.4846 37.43L2.04834 26.6685V26.6386L13.4846 15.8772L18.5217 17.7646V26.6735V35.5202Z" fill="white"/>
<path d="M18.522 11.3208V17.7647L13.4849 15.8774L18.522 11.3208Z" fill="#0C0C0C"/>
<path d="M18.5217 11.2559V11.3206L13.4845 15.8772L1.15693 11.2559H18.5217ZM18.4445 42.0562H1.14697L13.4845 37.4299L18.4445 42.0562Z" fill="#0C0C0C"/>
</svg>
