<svg width="58" height="57" viewBox="0 0 58 57" fill="none" xmlns="http://www.w3.org/2000/svg">
<path d="M2.41663 2.43586H55.5834V54.564H2.41663V2.43586ZM0 57H58V0H0V57ZM41.0349 27.4769C42.2674 27.4769 42.7024 27.4769 42.8232 27.4282C42.8232 27.2577 42.8716 27.1358 42.8716 27.0141C42.8716 25.6987 42.2432 23.2628 39.7299 23.2628C37.4098 23.2628 36.4191 25.3089 36.1774 27.4769H41.0349ZM36.1292 30.814C36.1775 34.1025 37.7242 36.3192 41.3975 36.3192C42.8233 36.3192 44.0558 36.1244 45.3367 35.5642C45.5059 35.4911 45.6268 35.5155 45.6268 35.7347V38.7795C45.6268 39.0231 45.5543 39.1449 45.3851 39.2667C44.1043 39.9 42.5092 40.1923 40.5276 40.1923C34.1477 40.1923 31.7551 35.4424 31.7551 30.1565C31.7551 24.4078 34.7035 19.7066 39.8994 19.7066C45.1677 19.7066 47.0044 24.1642 47.0044 27.7937C47.0044 28.963 46.9319 29.913 46.8111 30.3758C46.7627 30.5707 46.6903 30.6438 46.4968 30.6925C46.0135 30.7656 44.5876 30.8629 42.461 30.8629H36.1292V30.814ZM23.1759 28.3295C22.4993 25.6256 20.8559 19.7307 20.2517 16.8807H20.2033C19.6959 19.7307 18.3666 24.5537 17.3758 28.3295H23.1759ZM16.3849 32.2757L14.4758 39.559C14.4275 39.7537 14.355 39.8269 14.1133 39.8269H10.5608C10.3191 39.8269 10.2707 39.7538 10.3191 39.4616L17.1824 15.2731C17.3032 14.8347 17.3757 14.4936 17.4241 13.2757C17.4241 13.1052 17.4966 13.0321 17.6174 13.0321H22.6924C22.8615 13.0321 22.934 13.0809 22.9824 13.2757L30.6674 39.5103C30.7157 39.705 30.6674 39.8269 30.4741 39.8269H26.4866C26.2933 39.8269 26.1724 39.7538 26.1241 39.5834L24.1424 32.2758H16.3849V32.2757Z" fill="white"/>
</svg>
