<svg width="64" height="52" viewBox="0 0 64 52" fill="none" xmlns="http://www.w3.org/2000/svg">
<path d="M62.8182 28.8431C62.4545 26.306 61.5679 23.8999 60.1823 21.6926C58.974 19.7661 57.4235 18.0527 55.5729 16.5965L55.5779 16.5919L36.1413 1.79516C36.1273 1.78294 36.1127 1.77142 36.0975 1.76065C35.4513 1.26999 34.5764 1 33.6349 1C32.6922 1 31.783 1.27059 31.0763 1.76221C30.3164 2.28835 29.882 2.98647 29.8517 3.72956C29.8239 4.42286 30.1576 5.08995 30.7937 5.60996C32.0446 6.58828 33.2928 7.58789 34.5426 8.5887C35.7555 9.56041 37.0053 10.5611 38.2491 11.5353L14.4425 11.5193C11.72 11.5193 9.86617 12.7865 9.48483 14.908C9.31728 15.8373 9.61296 16.859 10.274 17.6416C10.9753 18.4711 11.9935 18.9287 13.1409 18.9287L14.9557 18.9299C17.4629 18.9299 19.9811 18.9238 22.4959 18.9178L24.8941 18.9122L3.28764 34.7564L3.20186 34.8185C1.99499 35.7354 1.20489 37.0209 1.03442 38.3451C0.905202 39.3483 1.14131 40.265 1.71751 40.9972C2.40424 41.87 3.47643 42.3501 4.73681 42.3501C5.97499 42.3501 7.2384 41.8851 8.29592 41.0383L19.9638 31.5738C19.9139 32.0359 19.8534 32.714 19.8603 33.2061C19.8734 33.9853 20.1257 35.5487 20.5253 36.8179C21.3508 39.4263 22.7414 41.8129 24.6582 43.9088C26.6526 46.0894 29.0816 47.8184 31.8773 49.0466C34.8329 50.3423 38.0102 51 41.3212 51H41.3519C44.6734 50.9921 47.8608 50.3239 50.826 49.0134C53.6263 47.7706 56.0542 46.0347 58.0411 43.8545C59.9555 41.7479 61.3441 39.3573 62.168 36.751C62.5756 35.4608 62.8367 34.1296 62.9465 32.782C63.0483 31.4796 63.0045 30.1543 62.8182 28.8431V28.8431ZM41.5632 41.3453C34.2663 41.3453 28.349 36.0987 28.349 29.6263C28.349 23.1546 34.2664 17.9079 41.5632 17.9079C48.8603 17.9079 54.777 23.1546 54.777 29.6263C54.7772 36.0987 48.8603 41.3453 41.5632 41.3453ZM49.1836 28.5965C49.2912 30.5282 48.5128 32.3219 47.1458 33.6497C45.7552 35.0024 43.771 35.8521 41.5521 35.8521C39.3342 35.8521 37.3496 35.0024 35.9585 33.6497C34.5921 32.3219 33.8152 30.5285 33.9222 28.5981C34.027 26.7216 34.9505 25.0653 36.3414 23.8925C37.7092 22.7393 39.5458 22.0358 41.5519 22.0358C43.5584 22.0358 45.3945 22.7395 46.7624 23.8925C48.154 25.0653 49.0777 26.7204 49.1836 28.5965V28.5965Z" fill="white"/>
</svg>
