<svg width="51" height="57" viewBox="0 0 51 57" fill="none" xmlns="http://www.w3.org/2000/svg">
<path d="M49.9035 17.1526C49.9035 16.2337 49.7076 15.405 49.3009 14.712C48.9092 14.019 48.3216 13.4465 47.5382 12.9945C41.0298 9.24312 34.5063 5.49178 27.9979 1.74037C26.2352 0.730954 24.5478 0.761099 22.8002 1.78556C20.2089 3.30724 7.22215 10.7497 3.36534 12.9945C1.76833 13.9135 1 15.3297 1 17.1678V39.8266C1 40.7306 1.19584 41.5291 1.57249 42.2221C1.96424 42.9302 2.56687 43.5329 3.36534 43.9999C7.23726 46.2447 20.2089 53.6721 22.8002 55.2088C24.5478 56.2331 26.2502 56.2783 27.9979 55.254C34.5063 51.4876 41.0298 47.7513 47.5382 43.9999C48.3517 43.5329 48.9393 42.9453 49.331 42.2221C49.7076 41.5291 49.9035 40.7306 49.9035 39.8266V17.1526Z" fill="white"/>
<path d="M25.5122 28.4067L1.54248 42.207C1.93423 42.9151 2.53686 43.5177 3.33533 43.9848C7.20725 46.2295 20.1789 53.657 22.7702 55.1937C24.5178 56.2182 26.2203 56.2634 27.9679 55.2389C34.4763 51.4724 40.9998 47.7361 47.5082 43.9848C48.3217 43.5177 48.9093 42.9302 49.301 42.207L25.5122 28.4067Z" fill="white"/>
<path d="M18.416 32.4895C19.8172 34.9302 22.4386 36.5724 25.4367 36.5724C28.4649 36.5724 31.1014 34.9152 32.4875 32.4444L25.512 28.4067L18.416 32.4895Z" fill="white"/>
<path d="M49.9037 17.1526C49.9037 16.2336 49.7078 15.405 49.3011 14.7119L25.5122 28.4067L49.3312 42.207C49.7078 41.514 49.9037 40.7155 49.9037 39.8115V17.1526Z" fill="white"/>
<path d="M32.4874 32.4444C31.1014 34.9001 28.4649 36.5724 25.4366 36.5724C22.4234 36.5724 19.802 34.9302 18.416 32.4896C17.738 31.2994 17.3463 29.9435 17.3463 28.4821C17.3463 24.0076 20.962 20.3918 25.4366 20.3918C28.4196 20.3918 31.026 22.0189 32.4271 24.4294L39.493 20.3616C36.6757 15.5105 31.4328 12.2412 25.4216 12.2412C16.4423 12.2412 9.18066 19.518 9.18066 28.4821C9.18066 31.4199 9.96403 34.1921 11.3351 36.5724C14.1373 41.4387 19.4103 44.723 25.4366 44.723C31.478 44.723 36.751 41.4236 39.5532 36.5273L32.4874 32.4444ZM41.4214 24.6403H39.8093V32.4293H41.4214V24.6403ZM44.992 24.6403H43.3799V32.4293H44.992V24.6403Z" fill="#0C0C0C"/>
<path d="M46.3027 25.9509H38.5137V27.563H46.3027V25.9509ZM46.3027 29.5064H38.5137V31.1185H46.3027V29.5064Z" fill="#0C0C0C"/>
</svg>
