<svg width="66" height="66" viewBox="0 0 66 66" fill="none" xmlns="http://www.w3.org/2000/svg">
<path d="M28.4326 19.7382C22.5516 23.0046 19.1758 35.2509 27.095 41.0282C35.0143 46.8055 45.2477 44.0073 48.9738 32.6335C52.6999 21.2597 56.2455 20.8554 56.2455 20.8554L57.583 19.568C54.2073 9.88588 45.7679 7.08765 45.7679 7.08765C44.3135 13.7906 34.303 16.4718 28.4326 19.7382Z" fill="white"/>
<path d="M45.7679 7.08782C45.7679 7.08782 47.0205 4.68326 44.5683 3.02347C42.1161 1.36368 20.9911 -3.58377 8.22049 12.5992C4.90842 16.7912 2.56237 21.7174 1.56451 26.9734C0.651565 31.7612 0.853262 36.7406 2.11652 41.454C3.35854 46.1035 5.59843 50.5083 8.71942 54.1577C12.2969 58.3391 16.9996 61.5204 22.1588 63.4036C23.6131 63.9356 25.1099 64.3612 26.6279 64.6804C32.4453 65.8933 38.5811 65.4677 44.1755 63.4887C45.1628 63.1376 46.1288 62.712 47.063 62.2545C51.3092 60.1692 54.9928 57.073 57.8909 53.3491C58.6127 52.4235 59.2815 51.4659 59.9185 50.4658C64.5362 43.1776 67.2644 32.7188 62.5193 20.8981C62.5193 20.8981 61.1817 17.6849 57.2752 19.6426C55.5661 20.5045 53.7614 28.8992 53.4642 33.0593C53.1669 37.2194 49.8867 54.5514 35.3327 59.4244C20.7894 64.2974 4.2821 53.0512 6.4583 35.1446C8.62388 17.2381 27.6895 13.461 36.9144 11.8544C46.1394 10.2584 45.7679 7.08782 45.7679 7.08782Z" fill="white"/>
</svg>
