<svg width="48" height="66" viewBox="0 0 48 66" fill="none" xmlns="http://www.w3.org/2000/svg">
<path d="M47.348 13.7139L43.1256 60.4899L24.1457 65.6932L5.21803 60.4971L1 13.7139H47.348Z" fill="white"/>
<path d="M24.1741 61.7157L39.5108 57.5111L43.1189 17.5388H24.1741V61.7157Z" fill="#0B0B0B"/>
<path d="M15.9659 29.0144H24.1741V23.2766H9.62476L9.76356 24.8159L11.1897 40.6277H24.1741V34.89H16.4962L15.9659 29.0144ZM17.2736 43.4967H11.449L12.2618 52.5059L24.1474 55.7685L24.1741 55.7613V49.7916L24.1487 49.7982L17.6867 48.0728L17.2736 43.4967Z" fill="#0B0B0B"/>
<path d="M5.31201 1H8.26065V3.88083H10.958V1H13.9069V9.72388H10.9582V6.80263H8.26083V9.72388H5.31219V1H5.31201ZM17.7842 3.89305H15.1888V1H23.3305V3.89305H20.7334V9.72388H17.7848V3.89305H17.7846H17.7842ZM24.6226 1H27.6972L29.5884 4.06534L31.4779 1H34.5537V9.72388H31.617V5.39985L29.5884 8.50166H29.5376L27.5077 5.39985V9.72388H24.6226V1ZM36.0211 1H38.9707V6.84035H43.1173V9.72388H36.0209V1H36.0211Z" fill="white"/>
<path d="M24.154 40.6277H31.2989L30.6252 48.0692L24.1538 49.7964V55.7658L36.0488 52.5059L36.1361 51.5364L37.4997 36.4307L37.6413 34.8899H24.154V40.6277ZM24.154 29.0004V29.0144H38.1692L38.2855 27.7248L38.55 24.8159L38.6886 23.2766H24.154V29.0005V29.0004Z" fill="white"/>
</svg>
