<svg width="154" height="36" viewBox="0 0 154 36" fill="none" xmlns="http://www.w3.org/2000/svg">
<path fill-rule="evenodd" clip-rule="evenodd" d="M146.618 3.53052L153 3.56537C153 3.56537 141.135 19.5034 140.166 20.8023C139.851 21.2228 139.373 21.6765 139.131 22.2388C138.518 23.6524 137.889 26.7532 137.889 26.7532L132.049 26.7821C132.049 26.7821 132.958 23.5499 132.92 21.8283C132.887 20.3244 132.113 18.8223 131.678 17.314C131.239 15.787 130.643 12.7993 130.643 12.7993H136.647L137.475 16.0827L146.618 3.53052Z" fill="white"/>
<path fill-rule="evenodd" clip-rule="evenodd" d="M134.533 6.89189C135.711 7.59569 136.434 11.4783 136.434 11.4783C136.434 11.4783 130.271 11.5684 126.917 11.5684H124.019L120.5 26.7532H115.118C115.118 26.7532 118.467 10.2511 119.258 7.25929C119.514 6.29056 121.013 6.45684 123.545 6.45684H127.588C130.199 6.45684 133.25 6.12635 134.533 6.89189ZM109.477 14.2873C109.477 14.2873 109.644 13.3127 108.907 12.1839C108.278 11.2216 107.697 10.9978 106.04 10.9464C101.364 10.8008 101.455 14.2359 101.455 14.2359L109.477 14.2873ZM114.548 10.3533C115.234 12.8038 113.927 18.5616 113.927 18.5616C113.927 18.5616 107.106 18.4487 103.37 18.5616C102.208 18.5967 100.818 18.4363 100.472 18.9721C99.9852 19.7228 100.65 20.8785 101.213 21.3667C101.861 21.9288 103.123 21.9929 103.577 22.0499C106.609 22.4317 112.956 22.1485 112.956 22.1485L111.857 26.9745C111.857 26.9745 102.888 27.4204 98.4016 26.359C97.5158 26.1498 96.6854 25.7272 96.1244 25.128C95.9712 24.964 95.8383 24.7405 95.6935 24.5473C95.5779 24.3931 95.2407 23.8866 95.0893 23.4861C94.0647 20.7796 95.2094 15.5945 96.3314 12.8159C96.4616 12.494 96.6252 12.0855 96.7974 11.7385C97.0125 11.3058 97.1946 10.8173 97.3665 10.5586C97.4821 10.3802 97.6254 10.2653 97.7455 10.097C97.884 9.89791 98.0452 9.70505 98.1945 9.53286C98.6086 9.05676 99.0785 8.72007 99.6437 8.30186C101.513 6.91433 104.895 5.83721 108.959 6.24951C110.489 6.40545 112.8 6.94712 113.927 8.50683C114.229 8.92327 114.379 9.75023 114.548 10.3536V10.3533ZM89.8624 6.43794L95.0812 6.40752C95.0812 6.40752 92.1727 20.0841 90.6904 26.7532H84.6868C80.4911 26.7532 76.7545 27.2683 75.1647 24.2906C73.6225 21.3995 75.0943 16.6451 75.7856 13.4149C76.2742 11.1289 77.3033 6.45655 77.3033 6.45655L82.7105 6.40752C82.7105 6.40752 81.1826 13.6819 80.5468 17.314C80.3192 18.615 79.8496 19.8401 80.34 20.802C80.8057 21.7176 81.4579 21.7832 83.4449 21.8284C84.0745 21.8431 86.1363 21.8284 86.1363 21.8284L89.8624 6.43794ZM65.4352 16.2877C65.9816 14.3632 66.7786 12.2763 66.6773 10.5421C66.5677 8.68729 64.9987 6.99851 63.9863 6.6435C60.9371 5.57642 58.0825 7.06821 56.9479 8.28503C55.4802 9.86099 54.9832 11.7019 54.4636 14.2362C54.0769 16.1176 53.7598 18.1038 54.4636 19.571C55.7096 22.1651 59.5954 21.5986 63.7792 21.6234C64.4001 19.9736 64.9135 18.1206 65.4352 16.2877ZM72.6807 8.69556C73.2766 12.9922 70.9895 17.7349 69.414 21.8591C71.0205 22.0029 72.4283 21.8369 72.5296 21.9557C72.6351 22.1095 71.4528 26.8785 71.0408 26.8909C69.7659 26.9237 65.541 26.9585 63.7792 26.9585C58.0303 26.9585 52.6524 27.3298 49.9098 24.4962C48.796 23.345 48.0258 21.3706 47.8393 19.9816C47.5289 17.6628 47.918 15.1099 48.4605 13.0049C48.9513 11.1044 49.5802 9.31106 50.5307 7.66923C52.9464 3.48951 57.1487 0.386915 64.1931 1.10313C65.5594 1.24253 67.5217 1.83558 68.7475 2.53939C68.8321 2.58871 69.1286 2.82262 69.1965 2.86368C70.8528 3.90831 72.3619 6.40132 72.6807 8.69556ZM47.2452 6.46275C46.8975 8.03251 46.5498 9.81196 46.1833 11.3631H40.3871C40.8361 9.64361 41.1799 7.93416 41.6292 6.43824C43.4839 6.43824 45.2085 6.46275 47.2455 6.46275H47.2452ZM40.18 12.7997H45.7695C45.0386 16.8093 43.5915 23.277 42.4572 27.7793C41.7472 30.5969 41.2732 32.6528 39.352 34.1404C39.1801 34.2739 39.0809 34.2104 38.9379 34.3457C38.5839 34.6803 36.9464 35.0684 36.04 35.1664C34.5661 35.3247 32.8997 35.1871 31.0881 35.1502C31.5622 33.4328 32.0985 31.3704 32.521 29.831C36.9365 30.3609 37.0483 26.2237 37.9031 22.2389C38.3977 19.9364 39.8966 13.7229 40.18 12.7997Z" fill="white"/>
<path fill-rule="evenodd" clip-rule="evenodd" d="M27.1381 23.2648L27.0183 23.5726C24.9774 27.5125 21.3606 29.9296 16.2019 30.0362C13.7904 30.0855 11.4926 29.4721 9.99153 28.8052C6.75225 27.3624 4.02752 24.6869 2.53957 21.8283C0.405078 17.7304 0.0201302 12.0299 4.45835 7.77222C4.52688 7.77222 3.91996 8.69547 3.98849 8.69547L3.86633 9.08945C0.668165 19.0148 10.5216 27.5207 20.1 26.5479C22.4019 26.314 25.3373 25.0644 27.1381 23.2648Z" fill="white"/>
<path fill-rule="evenodd" clip-rule="evenodd" d="M21.3415 19.1609C23.7513 19.1772 26.2684 18.0608 27.759 16.4934C26.4549 19.7747 22.679 21.8837 17.6157 21.213C13.3759 20.6506 9.33722 16.4216 8.92129 12.184C8.61709 9.10001 9.70131 7.25942 11.4881 5.02661C10.8672 6.1944 10.6351 7.09491 10.5773 7.66936C9.89856 14.3406 15.9534 19.1258 21.3415 19.1609Z" fill="white"/>
<path fill-rule="evenodd" clip-rule="evenodd" d="M27.5168 10.8746C27.1423 11.7264 24.9854 13.3349 24.0329 13.536C20.2612 14.3325 17.8457 12.5596 16.5804 10.5421C16.3924 10.2408 16.0446 9.41799 15.9824 9.2086C15.4917 7.55466 15.7172 5.05309 17.181 3.7583C16.7401 4.98959 16.6757 6.41965 16.9078 7.3494C17.0484 7.91144 17.4769 8.89287 17.9056 9.51014C18.6857 10.6345 19.1805 10.9077 20.1825 11.5049C20.6339 11.7737 21.1181 11.9893 21.3273 12.0483C22.2774 12.3257 24.2835 13.0561 27.5171 10.8746" fill="white"/>
</svg>
