<svg width="44" height="44" viewBox="0 0 44 44" fill="none" xmlns="http://www.w3.org/2000/svg">
<path d="M8.24998 8.28203H35.75V35.7179H8.24998V8.28203ZM7 37H37V7H7V37ZM26.65 17.6923C26.65 17.5897 26.6875 17.5384 26.8 17.5384H28.7625C28.8624 17.5384 28.9125 17.5769 28.9125 17.6923V27.8077C28.9125 27.9102 28.8875 27.9615 28.7625 27.9615H26.825C26.7 27.9615 26.6625 27.8974 26.6625 27.7949V17.6923H26.65ZM26.5125 14.782C26.5125 13.9615 27.075 13.4744 27.7875 13.4744C28.55 13.4744 29.0625 14 29.0625 14.782C29.0625 15.6282 28.525 16.0897 27.7625 16.0897C27.0375 16.0897 26.5125 15.6282 26.5125 14.782ZM20.8875 21.9102C20.5375 20.4872 19.7126 17.3846 19.4 15.8846H19.375C19.1125 17.3846 18.45 19.923 17.925 21.9102H20.8875ZM17.4125 23.9872L16.425 27.8333C16.4 27.9358 16.3625 27.9615 16.2375 27.9615H14.4C14.275 27.9615 14.25 27.923 14.275 27.7692L17.825 15.0256C17.8875 14.7948 17.925 14.5897 17.95 13.9615C17.95 13.8718 17.9875 13.8333 18.05 13.8333H20.675C20.7625 13.8333 20.8 13.859 20.825 13.9615L24.8 27.7948C24.825 27.8973 24.8 27.9615 24.7 27.9615H22.625C22.525 27.9615 22.4624 27.9358 22.4375 27.8462L21.4125 23.9872H17.4125Z" fill="white"/>
</svg>
