<svg width="44" height="44" viewBox="0 0 44 44" fill="none" xmlns="http://www.w3.org/2000/svg">
<path d="M7 7H37V37H7V7Z" fill="white"/>
<path d="M8.25 8.2821H35.75V35.718H8.25V8.2821Z" fill="#0C0C0C"/>
<path d="M15.325 24.3078L14.3625 27.9744C14.3375 28.077 14.3 28.1539 14.175 28.1539H12.3875C12.2625 28.1539 12.25 28.1155 12.2625 27.9744L15.725 15.6155C15.7875 15.3847 15.825 15.1924 15.85 14.5642C15.85 14.4744 15.8875 14.436 15.95 14.436H18.5C18.575 14.436 18.625 14.4616 18.6375 14.5642L22.525 27.9873C22.55 28.0898 22.525 28.1539 22.425 28.1539H20.4125C20.3125 28.1539 20.25 28.077 20.2375 28.0001L19.2375 24.3078H15.325ZM18.725 22.2565C18.3875 20.8719 17.575 17.8591 17.275 16.3975H17.25C17 17.8591 16.35 20.3206 15.85 22.2565H18.725ZM31.25 26.1411C31.25 26.2821 31.275 26.718 31.3125 27.4232C31.3125 27.5001 31.3 27.5514 31.225 27.5642C30.1625 27.9744 28.95 28.4103 27.4625 28.4103C25.6375 28.4103 23.875 27.6924 23.875 24.7949V18.1924C23.875 18.0898 23.9125 18.0257 24.0125 18.0257H25.975C26.075 18.0257 26.1125 18.0898 26.1125 18.1924V24.5257C26.1125 25.7437 26.625 26.3975 27.875 26.3975C28.375 26.3975 28.8 26.2949 29.1125 26.1667V18.1924C29.1125 18.0898 29.15 18.0257 29.25 18.0257H31.0875C31.2125 18.0257 31.225 18.0898 31.225 18.1924L31.25 26.1411Z" fill="white"/>
</svg>
