<svg width="44" height="44" viewBox="0 0 44 44" fill="none" xmlns="http://www.w3.org/2000/svg">
<path d="M38.9033 22.0353C38.7096 20.6652 38.2378 19.366 37.5003 18.174C36.8571 17.1337 36.0319 16.2085 35.0469 15.4221L35.0495 15.4196L24.7043 7.42939C24.6968 7.42279 24.689 7.41656 24.681 7.41075C24.337 7.14579 23.8713 7 23.3702 7C22.8684 7 22.3845 7.14612 22.0083 7.4116C21.6039 7.69571 21.3727 8.07269 21.3566 8.47396C21.3418 8.84835 21.5194 9.20857 21.8579 9.48938C22.5238 10.0177 23.1881 10.5575 23.8533 11.0979C24.4989 11.6226 25.1641 12.163 25.8261 12.6891L13.1549 12.6804C11.7058 12.6804 10.7191 13.3647 10.5161 14.5103C10.4269 15.0121 10.5843 15.5639 10.9361 15.9864C11.3094 16.4344 11.8514 16.6815 12.4621 16.6815L13.4281 16.6822C14.7625 16.6822 16.1029 16.6788 17.4414 16.6756L18.7179 16.6726L7.21762 25.2284L7.17196 25.262C6.52959 25.7571 6.10905 26.4513 6.01832 27.1663C5.94954 27.7081 6.07521 28.2031 6.3819 28.5985C6.74742 29.0698 7.3181 29.3291 7.98895 29.3291C8.64798 29.3291 9.32044 29.0779 9.88331 28.6207L16.0936 23.5098C16.0671 23.7594 16.0349 24.1255 16.0385 24.3913C16.0455 24.812 16.1798 25.6563 16.3925 26.3417C16.8319 27.7502 17.572 29.039 18.5922 30.1708C19.6538 31.3483 20.9467 32.2819 22.4347 32.9452C24.0078 33.6448 25.699 34 27.4613 34H27.4776C29.2455 33.9957 30.942 33.6349 32.5203 32.9272C34.0107 32.2561 35.303 31.3187 36.3606 30.1414C37.3795 29.0038 38.1186 27.7129 38.5572 26.3055C38.7741 25.6089 38.9131 24.89 38.9715 24.1623C39.0257 23.459 39.0024 22.7433 38.9033 22.0353ZM27.5901 28.7865C23.7063 28.7865 20.5567 25.9533 20.5567 22.4582C20.5567 18.9635 23.7063 16.1303 27.5901 16.1303C31.474 16.1303 34.6232 18.9635 34.6232 22.4582C34.6233 25.9533 31.474 28.7865 27.5901 28.7865ZM31.6461 21.9021C31.7034 22.9452 31.2891 23.9138 30.5615 24.6309C29.8213 25.3613 28.7652 25.8201 27.5842 25.8201C26.4037 25.8201 25.3473 25.3613 24.6069 24.6309C23.8797 23.9138 23.4662 22.9454 23.5231 21.9029C23.5789 20.8897 24.0704 19.9952 24.8108 19.3619C25.5388 18.7392 26.5163 18.3593 27.5841 18.3593C28.652 18.3593 29.6293 18.7394 30.3574 19.3619C31.0981 19.9952 31.5897 20.889 31.6461 21.9021Z" fill="white"/>
</svg>
