<svg width="44" height="44" viewBox="0 0 44 44" fill="none" xmlns="http://www.w3.org/2000/svg">
<path d="M34.2313 16.2232C34.2313 15.7554 34.1316 15.3335 33.9245 14.9807C33.7251 14.6279 33.4259 14.3364 33.0271 14.1063C29.7138 12.1965 26.3927 10.2868 23.0794 8.37698C22.182 7.86309 21.323 7.87844 20.4333 8.39998C19.1141 9.17465 12.5027 12.9635 10.5392 14.1063C9.72617 14.5742 9.33502 15.2952 9.33502 16.2309V27.7663C9.33502 28.2265 9.43472 28.633 9.62647 28.9858C9.8259 29.3463 10.1327 29.6531 10.5392 29.8908C12.5103 31.0337 19.1141 34.8149 20.4333 35.5972C21.323 36.1187 22.1896 36.1417 23.0794 35.6202C26.3927 33.7028 29.7138 31.8006 33.0271 29.8908C33.4413 29.6531 33.7404 29.354 33.9398 28.9858C34.1316 28.633 34.2313 28.2265 34.2313 27.7663V16.2232Z" fill="white"/>
<path d="M21.8138 21.9526L9.61108 28.9781C9.81052 29.3386 10.1173 29.6454 10.5238 29.8832C12.495 31.026 19.0987 34.8072 20.4179 35.5895C21.3076 36.1111 22.1743 36.1341 23.064 35.6125C26.3774 33.6951 29.6984 31.793 33.0118 29.8832C33.4259 29.6454 33.725 29.3463 33.9244 28.9781L21.8138 21.9526Z" fill="white"/>
<path d="M18.2012 24.0311C18.9145 25.2736 20.249 26.1096 21.7753 26.1096C23.317 26.1096 24.6592 25.2659 25.3648 24.0081L21.8137 21.9526L18.2012 24.0311Z" fill="white"/>
<path d="M34.2313 16.2232C34.2313 15.7554 34.1316 15.3335 33.9245 14.9807L21.8139 21.9526L33.9399 28.9782C34.1316 28.6254 34.2313 28.2189 34.2313 27.7587V16.2232Z" fill="white"/>
<path d="M25.365 24.0081C24.6594 25.2582 23.3171 26.1096 21.7755 26.1096C20.2415 26.1096 18.907 25.2736 18.2014 24.0311C17.8562 23.4252 17.6568 22.7349 17.6568 21.9909C17.6568 19.713 19.4975 17.8722 21.7755 17.8722C23.2941 17.8722 24.621 18.7005 25.3343 19.9277L28.9314 17.8569C27.4972 15.3872 24.8281 13.7228 21.7678 13.7228C17.1966 13.7228 13.4998 17.4274 13.4998 21.9909C13.4998 23.4865 13.8986 24.8978 14.5965 26.1096C16.0231 28.587 18.7076 30.259 21.7755 30.259C24.8511 30.259 27.5355 28.5793 28.9621 26.0866L25.365 24.0081ZM29.9132 20.0351H29.0925V24.0004H29.9132V20.0351ZM31.7309 20.0351H30.9102V24.0004H31.7309V20.0351Z" fill="#0C0C0C"/>
<path d="M32.3981 20.7024H28.4328V21.5231H32.3981V20.7024ZM32.3981 22.5125H28.4328V23.3331H32.3981V22.5125Z" fill="#0C0C0C"/>
</svg>
