<svg width="44" height="44" viewBox="0 0 44 44" fill="none" xmlns="http://www.w3.org/2000/svg">
<path d="M20.0017 16.1523C17.4287 17.5734 15.9518 22.9013 19.4165 25.4149C22.8812 27.9284 27.3583 26.711 28.9884 21.7626C30.6186 16.8143 32.1698 16.6384 32.1698 16.6384L32.755 16.0783C31.2781 11.8659 27.5859 10.6485 27.5859 10.6485C26.9496 13.5647 22.57 14.7312 20.0017 16.1523Z" fill="white"/>
<path d="M27.5859 10.6486C27.5859 10.6486 28.134 9.60246 27.0611 8.88034C25.9883 8.15822 16.7461 6.00576 11.159 13.0464C9.70993 14.8702 8.68354 17.0134 8.24697 19.3001C7.84756 21.3831 7.9358 23.5495 8.48848 25.6001C9.03186 27.623 10.0118 29.5394 11.3772 31.1271C12.9424 32.9463 14.9998 34.3303 17.257 35.1496C17.8932 35.3811 18.5481 35.5662 19.2122 35.7051C21.7573 36.2328 24.4417 36.0477 26.8893 35.1867C27.3212 35.0339 27.7438 34.8488 28.1525 34.6497C30.0103 33.7424 31.6219 32.3954 32.8898 30.7753C33.2056 30.3726 33.4982 29.956 33.7768 29.5208C35.7971 26.35 36.9907 21.7997 34.9147 16.657C34.9147 16.657 34.3295 15.259 32.6204 16.1108C31.8727 16.4857 31.0831 20.138 30.9531 21.9479C30.823 23.7578 29.3879 31.2984 23.0206 33.4184C16.6578 35.5385 9.43592 30.6457 10.388 22.8551C11.3354 15.0646 19.6767 13.4213 23.7126 12.7224C27.7485 12.028 27.5859 10.6486 27.5859 10.6486Z" fill="white"/>
</svg>
