<svg width="44" height="44" viewBox="0 0 44 44" fill="none" xmlns="http://www.w3.org/2000/svg">
<path d="M21.9829 41.8723L10.5482 38.6698L8 9.83588H36L33.4491 38.6653L21.9829 41.8723Z" fill="white"/>
<path d="M31.2653 36.8294L33.4451 12.1933H22V39.4208L31.2653 36.8294Z" fill="#0C0C0C"/>
<path d="M13.8417 22.8875L14.1558 26.4239H22V22.8875H13.8417ZM13.2104 15.7299L13.529 19.2662H22V15.7299H13.2104ZM22 32.0718L21.9847 32.0759L18.0808 31.0125L17.8313 28.1921H14.3125L14.8035 33.7447L21.9839 35.7556L22 35.7511V32.0718Z" fill="#0C0C0C"/>
<path d="M14.5896 2H18.835V3.79116H16.365V5.58231H18.8352V7.37336H14.5896V2ZM19.6842 2H23.9297V3.55752H21.4596V3.869H23.9297V7.45131H19.6843V5.81573H22.1544V5.50425H19.6841V2H19.6842ZM24.7789 2H29.0243V3.55752H26.5543V3.869H29.0243V7.45131H24.7789V5.81573H27.2489V5.50425H24.779V2H24.7789Z" fill="white"/>
<path d="M30.136 22.8875L30.7687 15.7299H21.988V19.2662H26.9272L26.6083 22.8875H21.988V26.4239H26.3044L25.8974 31.0103L21.9879 32.0748V35.7539L29.174 33.7447L29.2266 33.1472L30.0505 23.8371L30.136 22.8875Z" fill="white"/>
</svg>
