<svg width="44" height="44" viewBox="0 0 44 44" fill="none" xmlns="http://www.w3.org/2000/svg">
<path d="M17 12.5C17 12.5 15.5 12.5 14.5944 12.2316C13.068 14.4831 10.5083 19.2881 10.5083 26.1933C10.5083 34.4511 13.7613 38 16.7438 38C18.1294 38 22.6324 37.0165 27.1361 29.4734C29.7204 25.145 30.8487 21.9613 31.3297 19.8529C30.5 18.5 30 19 30 19L28.5 17.5L27 16L24.5 19L21.5 20L19 18.5L18 15.5L19 12.5L18 12L17 12.5Z" fill="white"/>
<mask id="path-2-inside-1" fill="white">
<path fill-rule="evenodd" clip-rule="evenodd" d="M25.7759 10.0907C26.3679 9.95801 27.2217 9.83302 28.3374 9.83302C33.2319 9.83302 34.875 14.474 34.875 16.4856C34.875 19.1683 34.1765 21.1791 32.7778 21.1791C31.3093 21.1791 27.1491 16.641 27.1491 16.641C27.1491 16.641 25.3663 20.6117 21.8007 20.6117C19.4233 20.6117 17.6405 18.3426 17.6405 15.5061C17.6405 14.3711 17.8338 13.4362 18.235 12.6695C18.235 12.6695 15.5782 13.237 13.4803 13.237C11.3823 13.237 10.5083 12.8274 10.5083 12.3603C10.5083 11.019 12.5007 6.42902 18.7938 6.42902C21.8524 6.42902 23.0644 7.41617 24.2564 9.45935C25.2747 7.73903 27.0513 5.32911 28.8483 4.13657C29.2212 3.88724 29.7255 3.98924 29.9741 4.36161C30.2234 4.73318 30.1219 5.23589 29.7483 5.4836C28.2363 6.48746 26.6902 8.59277 25.7759 10.0907Z"/>
</mask>
<path d="M25.7759 10.0907L24.9223 9.56964L23.694 11.582L25.9945 11.0665L25.7759 10.0907ZM27.1491 16.641L27.8863 15.9653L26.8593 14.8451L26.2369 16.2314L27.1491 16.641ZM18.235 12.6695L19.121 13.1333L20.1083 11.2469L18.0261 11.6916L18.235 12.6695ZM24.2564 9.45935L23.3927 9.96329L24.2502 11.4331L25.117 9.96872L24.2564 9.45935ZM28.8483 4.13657L29.4013 4.96979L29.4043 4.9678L28.8483 4.13657ZM29.9741 4.36161L29.1423 4.91676L29.1437 4.91885L29.9741 4.36161ZM29.7483 5.4836L29.1957 4.65014L29.1952 4.65049L29.7483 5.4836ZM28.3374 8.83302C27.1463 8.83302 26.2192 8.96652 25.5572 9.11486L25.9945 11.0665C26.5165 10.9495 27.297 10.833 28.3374 10.833V8.83302ZM35.875 16.4856C35.875 15.273 35.3999 13.4038 34.2515 11.8183C33.0715 10.1894 31.1542 8.83302 28.3374 8.83302V10.833C30.4151 10.833 31.7666 11.7971 32.6318 12.9916C33.5285 14.2295 33.875 15.6866 33.875 16.4856H35.875ZM32.7778 22.1791C34.0722 22.1791 34.8592 21.2178 35.2739 20.2233C35.6948 19.2138 35.875 17.8921 35.875 16.4856H33.875C33.875 17.7618 33.7059 18.7869 33.4279 19.4535C33.1437 20.1351 32.8821 20.1791 32.7778 20.1791V22.1791ZM27.1491 16.641C26.412 17.3168 26.4121 17.3168 26.4122 17.3169C26.4122 17.317 26.4123 17.3171 26.4124 17.3172C26.4126 17.3175 26.4129 17.3177 26.4132 17.3181C26.4139 17.3188 26.4148 17.3198 26.416 17.3211C26.4183 17.3236 26.4216 17.3272 26.4259 17.3319C26.4345 17.3412 26.4469 17.3546 26.463 17.372C26.4953 17.4068 26.5422 17.4571 26.6021 17.5209C26.7218 17.6483 26.8938 17.8295 27.1046 18.0466C27.5251 18.4799 28.1041 19.0604 28.7329 19.6434C29.3574 20.2225 30.051 20.8227 30.6982 21.2842C31.0211 21.5146 31.3537 21.7257 31.6758 21.8829C31.9777 22.0302 32.3673 22.1791 32.7778 22.1791V20.1791C32.8213 20.1791 32.7596 20.1863 32.5529 20.0854C32.3664 19.9945 32.133 19.851 31.8595 19.6559C31.3136 19.2666 30.6918 18.7322 30.0927 18.1768C29.4979 17.6252 28.945 17.0712 28.5397 16.6536C28.3374 16.4452 28.1729 16.2719 28.0594 16.1512C28.0027 16.0908 27.9588 16.0437 27.9294 16.012C27.9147 15.9961 27.9036 15.9841 27.8963 15.9762C27.8927 15.9723 27.89 15.9694 27.8883 15.9675C27.8875 15.9666 27.8869 15.966 27.8866 15.9656C27.8864 15.9654 27.8863 15.9653 27.8862 15.9652C27.8862 15.9652 27.8862 15.9652 27.8862 15.9652C27.8862 15.9652 27.8863 15.9653 27.1491 16.641ZM21.8007 21.6117C23.9836 21.6117 25.5697 20.3928 26.556 19.2945C27.0552 18.7387 27.4263 18.1869 27.6729 17.7751C27.7967 17.5681 27.8908 17.3938 27.9553 17.2682C27.9875 17.2053 28.0125 17.1544 28.0301 17.1176C28.039 17.0991 28.046 17.0842 28.0512 17.0729C28.0538 17.0673 28.056 17.0626 28.0577 17.0589C28.0585 17.057 28.0592 17.0554 28.0599 17.054C28.0602 17.0533 28.0605 17.0527 28.0607 17.0521C28.0608 17.0519 28.061 17.0515 28.0611 17.0513C28.0612 17.051 28.0614 17.0506 27.1491 16.641C26.2369 16.2314 26.237 16.2311 26.2372 16.2308C26.2372 16.2307 26.2373 16.2304 26.2374 16.2303C26.2375 16.2299 26.2377 16.2297 26.2378 16.2295C26.2379 16.229 26.238 16.2289 26.238 16.2289C26.238 16.229 26.2375 16.23 26.2366 16.2319C26.2349 16.2357 26.2314 16.243 26.2263 16.2537C26.2161 16.275 26.1993 16.3094 26.1759 16.3551C26.1289 16.4466 26.0558 16.5825 25.9569 16.7478C25.7577 17.0804 25.4603 17.5213 25.068 17.9582C24.2715 18.8452 23.1834 19.6117 21.8007 19.6117V21.6117ZM16.6405 15.5061C16.6405 18.6826 18.6803 21.6117 21.8007 21.6117V19.6117C20.1663 19.6117 18.6405 18.0027 18.6405 15.5061H16.6405ZM17.349 12.2058C16.8521 13.1552 16.6405 14.2613 16.6405 15.5061H18.6405C18.6405 14.4809 18.8154 13.7171 19.121 13.1333L17.349 12.2058ZM13.4803 14.237C14.6046 14.237 15.8516 14.0863 16.7957 13.9418C17.2725 13.8687 17.6818 13.7958 17.9726 13.7409C18.1181 13.7134 18.2343 13.6904 18.3149 13.6741C18.3552 13.6659 18.3866 13.6595 18.4084 13.6549C18.4193 13.6527 18.4277 13.6509 18.4337 13.6497C18.4367 13.649 18.439 13.6485 18.4407 13.6482C18.4416 13.648 18.4422 13.6478 18.4428 13.6477C18.443 13.6477 18.4433 13.6476 18.4434 13.6476C18.4435 13.6476 18.4436 13.6475 18.4437 13.6475C18.4438 13.6475 18.4439 13.6475 18.235 12.6695C18.0261 11.6916 18.0262 11.6916 18.0262 11.6916C18.0262 11.6916 18.0263 11.6916 18.0263 11.6916C18.0263 11.6916 18.0263 11.6916 18.0263 11.6916C18.0261 11.6916 18.0259 11.6917 18.0254 11.6918C18.0246 11.6919 18.0231 11.6923 18.0209 11.6927C18.0167 11.6936 18.01 11.695 18.0009 11.6969C17.9827 11.7007 17.955 11.7064 17.9186 11.7138C17.8457 11.7285 17.7379 11.7498 17.6016 11.7756C17.3287 11.8271 16.9426 11.896 16.493 11.9648C15.5842 12.104 14.4539 12.237 13.4803 12.237V14.237ZM9.50833 12.3603C9.50833 12.8244 9.73588 13.1901 10.0057 13.4349C10.2606 13.6662 10.5773 13.8175 10.8904 13.9222C11.519 14.1324 12.3854 14.237 13.4803 14.237V12.237C12.4772 12.237 11.8576 12.1368 11.5247 12.0255C11.357 11.9694 11.3241 11.9306 11.3496 11.9538C11.39 11.9904 11.5083 12.1297 11.5083 12.3603H9.50833ZM18.7938 5.42902C15.378 5.42902 13.0487 6.68507 11.5758 8.19287C10.8484 8.93756 10.3394 9.73356 10.0097 10.4493C9.68998 11.1433 9.50833 11.8294 9.50833 12.3603H11.5083C11.5083 12.2205 11.5757 11.8299 11.8262 11.2861C12.0668 10.7639 12.4492 10.1609 13.0065 9.59044C14.103 8.46793 15.9165 7.42902 18.7938 7.42902V5.42902ZM25.1202 8.95541C24.4901 7.8755 23.7855 6.95005 22.7408 6.32122C21.6938 5.69108 20.4244 5.42902 18.7938 5.42902V7.42902C20.2218 7.42902 21.0876 7.66054 21.7094 8.03476C22.3333 8.41031 22.8307 9.00002 23.3927 9.96329L25.1202 8.95541ZM25.117 9.96872C26.1153 8.28214 27.798 6.03376 29.4013 4.96978L28.2954 3.30335C26.3047 4.62446 24.4341 7.19591 23.3959 8.94998L25.117 9.96872ZM29.4043 4.9678C29.3152 5.02738 29.1989 5.00153 29.1423 4.91676L30.8058 3.80646C30.2522 2.97694 29.1271 2.74709 28.2924 3.30533L29.4043 4.9678ZM29.1437 4.91885C29.0824 4.82739 29.1098 4.70708 29.1957 4.65014L30.3009 6.31705C31.134 5.76469 31.3645 4.63896 30.8044 3.80438L29.1437 4.91885ZM29.1952 4.65049C27.4881 5.78383 25.8473 8.05426 24.9223 9.56964L26.6294 10.6117C27.5331 9.13127 28.9844 7.19109 30.3014 6.3167L29.1952 4.65049Z" fill="white" mask="url(#path-2-inside-1)"/>
<path d="M13.7564 28.2859C13.3479 28.2859 12.9954 27.9783 12.9499 27.5638C12.6924 25.2025 12.9759 22.6428 13.7921 19.956C13.9221 19.5278 14.3761 19.2849 14.805 19.4161C15.2347 19.5456 15.4775 19.9973 15.3467 20.4255C14.5946 22.9026 14.3315 25.2462 14.5646 27.389C14.6133 27.8342 14.2909 28.2333 13.8449 28.2819C13.8149 28.2843 13.7856 28.2859 13.7564 28.2859Z" fill="#0C0C0C"/>
</svg>
