<svg width="44" height="44" viewBox="0 0 44 44" fill="none" xmlns="http://www.w3.org/2000/svg">
<path d="M36 9.68066L33.4491 37.9393L21.9829 41.0827L10.5482 37.9436L8 9.68066H36Z" fill="white"/>
<path d="M22 38.68L31.2653 36.1399L33.4451 11.9916H22V38.68Z" fill="#0C0C0C"/>
<path d="M17.0412 18.9244H22V15.4581H13.2104L13.2942 16.388L14.1558 25.9403H22V22.474H17.3616L17.0412 18.9244ZM17.8312 27.6735H14.3125L14.8035 33.1162L21.9839 35.0872L22 35.0829V31.4764L21.9847 31.4805L18.0808 30.4381L17.8312 27.6735Z" fill="#0C0C0C"/>
<path d="M10.6051 2H12.3865V3.74038H14.016V2H15.7975V7.27032H14.0161V5.50551H12.3866V7.27032H10.6052V2H10.6051ZM18.1399 3.74776H16.5719V2H21.4905V3.74776H19.9216V7.27032H18.1402V3.74776H18.1401H18.1399ZM22.2711 2H24.1285L25.2711 3.85185L26.4126 2H28.2708V7.27032H26.4966V4.65806L25.2711 6.53195H25.2404L24.0141 4.65806V7.27032H22.2711V2ZM29.1573 2H30.9392V5.52831H33.4442V7.27032H29.1571V2H29.1573Z" fill="white"/>
<path d="M21.988 25.9403H26.3044L25.8974 30.4359L21.9879 31.4794V35.0856L29.174 33.1162L29.2266 32.5306L30.0505 23.4048L30.136 22.474H21.988V25.9403ZM21.988 18.9159V18.9244H30.4549L30.5252 18.1453L30.685 16.388L30.7687 15.4581H21.988V18.916V18.9159Z" fill="white"/>
</svg>
