<svg width="44" height="44" viewBox="0 0 44 44" fill="none" xmlns="http://www.w3.org/2000/svg">
<path fill-rule="evenodd" clip-rule="evenodd" d="M36.2957 29.4097L36.1615 29.7545C33.8746 34.1691 29.8222 36.8773 24.042 36.9968C21.3399 37.0521 18.7654 36.3647 17.0835 35.6175C13.4539 34.001 10.401 31.0031 8.73377 27.8001C6.34214 23.2085 5.91081 16.8213 10.8837 12.0507C10.9605 12.0507 10.2805 13.0852 10.3572 13.0852L10.2204 13.5266C6.63692 24.6477 17.6774 34.1783 28.4097 33.0883C30.9889 32.8262 34.2779 31.426 36.2957 29.4097Z" fill="white"/>
<path fill-rule="evenodd" clip-rule="evenodd" d="M29.8006 24.8111C32.5007 24.8293 35.321 23.5784 36.9912 21.8222C35.53 25.4988 31.2992 27.8619 25.626 27.1104C20.8754 26.4803 16.3502 21.7418 15.8842 16.9937C15.5433 13.5382 16.7581 11.4759 18.7602 8.97406C18.0645 10.2825 17.8044 11.2915 17.7396 11.9352C16.9791 19.4101 23.7635 24.7717 29.8006 24.8111Z" fill="white"/>
<path fill-rule="evenodd" clip-rule="evenodd" d="M36.72 15.5269C36.3004 16.4813 33.8837 18.2835 32.8164 18.5089C28.5904 19.4014 25.8839 17.4148 24.4661 15.1543C24.2554 14.8168 23.8658 13.8948 23.7961 13.6602C23.2462 11.807 23.4989 9.00406 25.1391 7.55328C24.645 8.93291 24.5729 10.5352 24.833 11.577C24.9905 12.2067 25.4706 13.3064 25.951 13.998C26.825 15.2579 27.3795 15.564 28.5022 16.2331C29.008 16.5343 29.5505 16.7758 29.7848 16.842C30.8495 17.1528 33.0972 17.9711 36.7204 15.5269" fill="white"/>
</svg>
