<svg width="44" height="44" viewBox="0 0 44 44" fill="none" xmlns="http://www.w3.org/2000/svg">
<path d="M6 6H38.22V38.22H6V6Z" fill="white"/>
<path d="M14.4719 32.9254L16.9375 31.4332C17.4133 32.2766 17.846 32.9902 18.8839 32.9902C19.8788 32.9902 20.5063 32.601 20.5063 31.0872V20.7921H23.5341V31.13C23.5341 34.266 21.6958 35.6935 19.0137 35.6935C16.5915 35.6935 15.1856 34.4391 14.4718 32.9251L14.4719 32.9254ZM25.1787 32.6009L27.644 31.1735C28.293 32.2334 29.1366 33.012 30.6287 33.012C31.8834 33.012 32.6834 32.3847 32.6834 31.5195C32.6834 30.4814 31.8615 30.1137 30.4773 29.5083L29.7205 29.1836C27.536 28.2538 26.087 27.0859 26.087 24.6203C26.087 22.3493 27.8172 20.619 30.5208 20.619C32.4457 20.619 33.8299 21.2895 34.8246 23.0414L32.467 24.5555C31.9479 23.6255 31.3858 23.2579 30.5206 23.2579C29.6338 23.2579 29.0715 23.8202 29.0715 24.5555C29.0715 25.4638 29.6338 25.8317 30.9314 26.394L31.6884 26.7184C34.2622 27.8215 35.7112 28.9461 35.7112 31.4763C35.7112 34.2017 33.5701 35.6939 30.6936 35.6939C27.882 35.6939 26.0652 34.353 25.1785 32.601" fill="#0C0C0C"/>
</svg>
