<svg width="44" height="44" viewBox="0 0 44 44" fill="none" xmlns="http://www.w3.org/2000/svg">
<path fill-rule="evenodd" clip-rule="evenodd" d="M22.1288 23.0935C24.2003 22.1955 25.1517 19.7883 24.2538 17.7168C23.3558 15.6452 20.9486 14.6938 18.877 15.5918C16.8055 16.4897 15.8541 18.897 16.7521 20.9685C17.65 23.04 20.0572 23.9914 22.1288 23.0935ZM20.8416 20.1241C21.2732 19.937 21.4714 19.4355 21.2843 19.0039C21.0973 18.5723 20.5958 18.3741 20.1642 18.5612C19.7326 18.7483 19.5344 19.2498 19.7215 19.6814C19.9086 20.1129 20.4101 20.3111 20.8416 20.1241Z" fill="white"/>
<path fill-rule="evenodd" clip-rule="evenodd" d="M6.90971 15.395C6.49815 14.4456 6.93421 13.3423 7.88366 12.9307L24.4499 5.74979C25.3994 5.33824 26.5027 5.77429 26.9143 6.72374L36.263 28.2911C36.6746 29.2406 36.2385 30.3439 35.289 30.7555L18.7228 37.9364C17.7733 38.3479 16.67 37.9119 16.2585 36.9624L6.90971 15.395ZM27.2227 16.4295C28.8315 20.141 27.127 24.454 23.4155 26.0628C19.704 27.6716 15.391 25.967 13.7822 22.2555C12.1734 18.544 13.8779 14.2311 17.5894 12.6222C21.3009 11.0134 25.6139 12.718 27.2227 16.4295ZM19.5868 30.5072C18.9826 30.7691 18.7051 31.4712 18.967 32.0754L19.4412 33.1694C19.7031 33.7736 20.4052 34.0511 21.0094 33.7892L30.6991 29.589C31.3033 29.3271 31.5808 28.625 31.3189 28.0208L30.8447 26.9268C30.5828 26.3226 29.8807 26.0451 29.2765 26.307L19.5868 30.5072Z" fill="white"/>
</svg>
