<svg width="44" height="44" viewBox="0 0 44 44" fill="none" xmlns="http://www.w3.org/2000/svg">
<path d="M20.1809 16.8901L20.1403 16.8756V13.1214L20.1823 13.0837L20.1968 13.0605L34.0675 22.0513L20.1794 16.8944L20.1809 16.8901ZM20.1809 27.2184L20.1794 27.2141L34.0675 22.0571L20.1954 31.048L20.1823 31.0277H20.1403V27.2329L20.1809 27.2184Z" fill="#0C0C0C"/>
<path d="M26.5766 7.10876L34.0675 22.0515L20.1968 13.0606L20.1794 13.049L20.1823 13.0417L26.5316 7.15083L26.5766 7.10876ZM34.0675 22.0573L26.5766 37L26.5345 36.9594L20.1823 31.067L20.1794 31.0597L20.1953 31.0481L34.0675 22.0573Z" fill="white"/>
<path d="M20.1795 13.0495L20.1969 13.0611L20.1824 13.0844H10.0238L9.93243 13.0495L12.4695 7.14557L12.4826 7.15137H26.5317L20.1824 13.0423L20.1795 13.0495ZM20.1824 13.0844L20.1404 13.1221V13.0844H20.1824ZM20.1824 31.0284L20.1955 31.0487L20.1795 31.0603L20.1824 31.0675L26.5346 36.9599H12.4826L12.4695 36.9657L9.93243 31.0603L10.018 31.0284H20.0954L20.1404 31.0704V31.0284H20.1824Z" fill="white"/>
<path d="M20.1794 16.8946L34.0675 22.0515V22.0573L20.1794 27.2142L20.1809 27.2186L20.1403 27.2331V16.8757L20.1809 16.8902L20.1794 16.8946Z" fill="white"/>
<path d="M20.1404 31.0279V31.07L20.0955 31.0279H20.1404Z" fill="black"/>
<path d="M20.1405 27.233V31.0278H20.0955L17.2059 28.3326L20.1405 27.233Z" fill="#0C0C0C"/>
<path d="M20.1405 27.2199V27.233L17.2059 28.3325L10.5433 22.063V22.0456L17.2059 15.7761L20.1405 16.8756V22.0659V27.2199Z" fill="white"/>
<path d="M20.1405 13.1215V16.8756L17.2059 15.7761L20.1405 13.1215Z" fill="#0C0C0C"/>
<path d="M20.1403 13.0838V13.1215L17.2057 15.7761L10.0237 13.0838H20.1403ZM20.0953 31.0278H10.0179L17.2057 28.3326L20.0953 31.0278Z" fill="#0C0C0C"/>
</svg>
