<svg width="58" height="57" viewBox="0 0 58 57" fill="none" xmlns="http://www.w3.org/2000/svg">
<path d="M2.41663 2.43586H55.5834V54.564H2.41663V2.43586ZM0 57H58V0H0V57ZM37.99 20.3154C37.99 20.1205 38.0625 20.023 38.28 20.023H42.0742C42.2674 20.023 42.3641 20.0961 42.3641 20.3154V39.5346C42.3641 39.7294 42.3158 39.8269 42.0742 39.8269H38.3283C38.0867 39.8269 38.0141 39.7051 38.0141 39.5103V20.3154H37.99ZM37.7242 14.7858C37.7242 13.2269 38.8116 12.3013 40.1892 12.3013C41.6634 12.3013 42.6542 13.3 42.6542 14.7858C42.6542 16.3935 41.6151 17.2704 40.1409 17.2704C38.7391 17.2705 37.7242 16.3935 37.7242 14.7858ZM26.8492 28.3295C26.1726 25.6256 24.5776 19.7307 23.9733 16.8807H23.925C23.4175 19.7307 22.1367 24.5537 21.1217 28.3295H26.8492ZM20.1309 32.2757L18.2217 39.5833C18.1733 39.7781 18.1008 39.8268 17.8592 39.8268H14.3067C14.0651 39.8268 14.0166 39.7537 14.0651 39.4615L20.9283 15.2486C21.0492 14.8102 21.1217 14.4204 21.17 13.2269C21.17 13.0564 21.2425 12.9833 21.3633 12.9833H26.4383C26.6074 12.9833 26.6799 13.032 26.7283 13.2269L34.4133 39.5102C34.4616 39.7049 34.4133 39.8268 34.22 39.8268H30.2083C30.015 39.8268 29.894 39.7781 29.8458 39.6077L27.8641 32.2757H20.1309Z" fill="white"/>
</svg>
