<svg width="58" height="57" viewBox="0 0 58 57" fill="none" xmlns="http://www.w3.org/2000/svg">
<path d="M0 0H58V57H0V0Z" fill="white"/>
<path d="M2.45117 2.44287H55.5498V54.5572H2.45117V2.44287Z" fill="#0C0C0C"/>
<path d="M15.85 32.8253L13.9518 39.876C13.9025 40.0732 13.8286 40.2211 13.582 40.2211H10.0568C9.81026 40.2211 9.78561 40.1472 9.81026 39.876L16.6389 16.1108C16.7622 15.6671 16.8361 15.2973 16.8854 14.0893C16.8854 13.9167 16.9594 13.8428 17.0827 13.8428H22.1117C22.2596 13.8428 22.3582 13.8921 22.3829 14.0893L30.0497 39.9007C30.099 40.0979 30.0497 40.2211 29.8525 40.2211H25.8835C25.6863 40.2211 25.563 40.0732 25.5384 39.9253L23.5662 32.8253H15.85ZM22.5554 28.8809C21.8898 26.2184 20.2874 20.425 19.6958 17.6146H19.6465C19.1534 20.425 17.8715 25.1584 16.8854 28.8809H22.5554ZM47.2569 36.3507C47.2569 36.6219 47.3062 37.46 47.3802 38.8159C47.3802 38.9639 47.3555 39.0625 47.2076 39.0871C45.1122 39.876 42.7209 40.7142 39.7873 40.7142C36.1881 40.7142 32.7121 39.3337 32.7121 33.7621V21.066C32.7121 20.8688 32.7861 20.7455 32.9833 20.7455H36.8537C37.0509 20.7455 37.1249 20.8688 37.1249 21.066V33.2444C37.1249 35.5864 38.1356 36.8437 40.6008 36.8437C41.5869 36.8437 42.4251 36.6465 43.0414 36.4V21.066C43.0414 20.8688 43.1154 20.7455 43.3126 20.7455H46.9365C47.183 20.7455 47.2076 20.8688 47.2076 21.066L47.2569 36.3507Z" fill="white"/>
</svg>
