<svg width="48" height="68" viewBox="0 0 48 68" fill="none" xmlns="http://www.w3.org/2000/svg">
<path d="M24.1457 67.0001L5.21803 61.699L1 13.9707H47.348L43.1256 61.6917L24.1457 67.0001Z" fill="white"/>
<path d="M39.5108 58.6529L43.119 17.873H24.1741V62.9424L39.5108 58.6529Z" fill="#0B0B0B"/>
<path d="M10.6695 35.575L11.1895 41.4287H24.1739V35.575H10.6695ZM9.62451 23.7271L10.1519 29.5807H24.1739V23.7271H9.62451ZM24.1739 50.7777L24.1484 50.7845L17.6865 49.0242L17.2734 44.3556H11.4487L12.2616 53.5468L24.1472 56.8753L24.1739 56.868V50.7777Z" fill="#0B0B0B"/>
<path d="M11.9077 1H18.935V3.96487H14.8465V6.92975H18.9354V9.89444H11.9077V1ZM20.3407 1H27.3682V3.57814H23.2795V4.09373H27.3682V10.0235H20.3409V7.31612H24.4295V6.80053H20.3405V1H20.3407ZM28.7738 1H35.8013V3.57814H31.7127V4.09373H35.8013V10.0235H28.7738V7.31612H32.8625V6.80053H28.774V1H28.7738Z" fill="white"/>
<path d="M37.6413 35.575L38.6886 23.7271H24.154V29.5807H32.3299L31.8019 35.575H24.154V41.4287H31.2989L30.6252 49.0205L24.1538 50.7826V56.8726L36.0489 53.5468L36.1361 52.5578L37.4997 37.1469L37.6413 35.575Z" fill="white"/>
</svg>
