<svg width="45" height="62" viewBox="0 0 45 62" fill="none" xmlns="http://www.w3.org/2000/svg">
<path fill-rule="evenodd" clip-rule="evenodd" d="M32.4631 11.0002C30.7734 11.0002 29.4241 11.1625 28.4151 11.3563C30.1006 8.74111 32.7487 5.31594 35.3416 3.63354C36.0203 3.19383 36.2047 2.30147 35.7518 1.6419C35.3003 0.980891 34.3842 0.799833 33.707 1.24242C30.4719 3.34053 27.2731 7.56144 25.4158 10.6094C23.2604 6.82629 21.1511 5 15.6214 5C4.51597 5 1 13.0907 1 15.4551C1 16.2784 2.54227 17.0004 6.24457 17.0004C6.56974 17.0004 6.90251 16.9927 7.23905 16.9786C4.57425 21.3743 1 29.2985 1 40.1804C1 54.742 6.68723 61 11.9016 61C14.3242 61 22.1968 59.2656 30.0709 45.9645C34.3972 38.656 36.3895 33.1983 37.2893 29.4838C38.4869 30.3793 39.5773 31 40.2991 31C42.7673 31 44 27.4555 44 22.7267C44 19.1808 41.1004 11.0002 32.4631 11.0002ZM10.4717 16.691C9.72528 17.7728 8.78224 19.2915 7.8348 21.2213C5.70447 25.5605 3.55606 31.968 3.55606 40.1804C3.55606 47.1609 4.92433 51.851 6.67185 54.7034C8.4086 57.5383 10.4018 58.4306 11.9016 58.4306C13.2259 58.4306 20.3505 57.3601 27.8743 44.6506C32.3089 37.1592 34.163 31.7721 34.9259 28.3604C34.9811 28.1135 35.0307 27.8768 35.075 27.6504C33.2895 26.0551 31.6078 24.318 30.8253 23.4913L30.2345 23.2705C29.5791 24.5563 26.4768 29.9997 20.9276 29.9997C16.7323 29.9997 13.5861 26.0001 13.5861 21.0001C13.5861 19.5772 13.7587 18.3326 14.1131 17.2463L12.0323 16.4687C11.5505 16.5441 11.0238 16.6205 10.4717 16.691ZM5.14582 42.7027C5.2179 43.4473 5.77647 44 6.42386 44C6.47019 44 6.51653 43.9971 6.56415 43.9927C7.27074 43.9055 7.7817 43.1884 7.70448 42.3885C7.33509 38.5387 7.7521 34.3281 8.94391 29.8776C9.15112 29.1082 8.76629 28.2966 8.08544 28.0639C7.40588 27.8283 6.68642 28.2646 6.48049 29.034C5.18701 33.8612 4.73783 38.4601 5.14582 42.7027Z" fill="white"/>
</svg>
