<svg width="59" height="59" viewBox="0 0 59 59" fill="none" xmlns="http://www.w3.org/2000/svg">
<g clip-path="url(#clip0)">
<path d="M0 0H59.4038V59.4038H0V0Z" fill="white"/>
<path d="M15.6196 49.6421L20.1654 46.891C21.0425 48.4459 21.8403 49.7616 23.754 49.7616C25.5883 49.7616 26.7451 49.0441 26.7451 46.2531V27.2722H32.3274V46.332C32.3274 52.1138 28.9381 54.7457 23.9932 54.7457C19.5275 54.7457 16.9353 52.4329 15.6194 49.6416L15.6196 49.6421ZM35.3595 49.0439L39.9048 46.4122C41.1015 48.3663 42.6567 49.8017 45.4078 49.8017C47.7211 49.8017 49.196 48.6452 49.196 47.0501C49.196 45.1362 47.6807 44.4582 45.1287 43.342L43.7334 42.7434C39.7057 41.0292 37.0342 38.8759 37.0342 34.3301C37.0342 30.143 40.2241 26.9529 45.2087 26.9529C48.7576 26.9529 51.3097 28.1892 53.1438 31.4191L48.7971 34.2106C47.8399 32.496 46.8036 31.8182 45.2085 31.8182C43.5735 31.8182 42.5367 32.855 42.5367 34.2106C42.5367 35.8853 43.5735 36.5635 45.9659 37.6003L47.3614 38.1983C52.1067 40.2322 54.7783 42.3055 54.7783 46.9706C54.7783 51.9953 50.8307 54.7464 45.5273 54.7464C40.3436 54.7464 36.9941 52.2742 35.3593 49.0441" fill="black"/>
</g>
<defs>
<clipPath id="clip0">
<rect width="59" height="59" fill="white"/>
</clipPath>
</defs>
</svg>
