<svg width="55" height="59" viewBox="0 0 55 59" fill="none" xmlns="http://www.w3.org/2000/svg">
<path fill-rule="evenodd" clip-rule="evenodd" d="M28.2546 31.9095C31.8457 30.3528 33.495 26.1798 31.9384 22.5886C30.3817 18.9975 26.2087 17.3482 22.6175 18.9049C19.0264 20.4615 17.3771 24.6346 18.9338 28.2257C20.4904 31.8168 24.6635 33.4661 28.2546 31.9095ZM26.0233 26.7618C26.7714 26.4375 27.115 25.5681 26.7907 24.82C26.4664 24.0718 25.597 23.7282 24.8489 24.0525C24.1007 24.3768 23.7571 25.2462 24.0814 25.9944C24.4057 26.7425 25.2751 27.0861 26.0233 26.7618Z" fill="white"/>
<path fill-rule="evenodd" clip-rule="evenodd" d="M1.87093 18.564C1.15747 16.918 1.91339 15.0054 3.55933 14.2919L32.2778 1.84339C33.9238 1.12993 35.8364 1.88585 36.5499 3.53179L52.7565 40.9201C53.4699 42.566 52.714 44.4786 51.0681 45.1921L22.3495 57.6406C20.7036 58.3541 18.791 57.5982 18.0775 55.9522L1.87093 18.564ZM37.0846 20.3573C39.8736 26.7914 36.9186 34.2681 30.4845 37.0571C24.0504 39.8461 16.5737 36.8911 13.7847 30.457C10.9957 24.0229 13.9507 16.5461 20.3848 13.7572C26.8189 10.9682 34.2957 13.9232 37.0846 20.3573ZM23.8473 44.7617C22.7999 45.2157 22.3189 46.4328 22.7729 47.4802L23.595 49.3767C24.049 50.4241 25.2661 50.9052 26.3135 50.4512L43.1112 43.17C44.1586 42.7159 44.6396 41.4988 44.1856 40.4514L43.3635 38.5549C42.9095 37.5075 41.6924 37.0264 40.6449 37.4804L23.8473 44.7617Z" fill="white"/>
</svg>
