<svg width="24" height="24" viewBox="0 0 24 24" fill="none" xmlns="http://www.w3.org/2000/svg">
<path d="M7.20833 0.75C3.64204 0.75 0.75 3.64204 0.75 7.20833V17.5417C0.75 21.108 3.64204 24 7.20833 24H17.5417C21.108 24 24 21.108 24 17.5417V7.20833C24 3.64204 21.108 0.75 17.5417 0.75H7.20833ZM20.125 3.33333C20.838 3.33333 21.4167 3.912 21.4167 4.625C21.4167 5.338 20.838 5.91667 20.125 5.91667C19.412 5.91667 18.8333 5.338 18.8333 4.625C18.8333 3.912 19.412 3.33333 20.125 3.33333ZM12.375 5.91667C15.9413 5.91667 18.8333 8.80871 18.8333 12.375C18.8333 15.9413 15.9413 18.8333 12.375 18.8333C8.80871 18.8333 5.91667 15.9413 5.91667 12.375C5.91667 8.80871 8.80871 5.91667 12.375 5.91667ZM12.375 8.5C11.3473 8.5 10.3617 8.90826 9.63496 9.63496C8.90826 10.3617 8.5 11.3473 8.5 12.375C8.5 13.4027 8.90826 14.3883 9.63496 15.115C10.3617 15.8417 11.3473 16.25 12.375 16.25C13.4027 16.25 14.3883 15.8417 15.115 15.115C15.8417 14.3883 16.25 13.4027 16.25 12.375C16.25 11.3473 15.8417 10.3617 15.115 9.63496C14.3883 8.90826 13.4027 8.5 12.375 8.5Z" fill="white"/>
</svg>
