<svg width="24" height="24" viewBox="0 0 24 24" fill="none" xmlns="http://www.w3.org/2000/svg">
<path d="M21.4167 0.75H3.33333C1.90604 0.75 0.75 1.90604 0.75 3.33333V21.4167C0.75 22.844 1.90604 24 3.33333 24H13.1771V15.0087H10.1507V11.4889H13.1771V8.89913C13.1771 5.89729 15.0126 4.26075 17.6915 4.26075C18.5944 4.25817 19.496 4.30467 20.3937 4.39637V7.53513H18.5492C17.0896 7.53513 16.8054 8.22487 16.8054 9.24271V11.4838H20.2929L19.8395 15.0035H16.7847V24H21.4167C22.844 24 24 22.844 24 21.4167V3.33333C24 1.90604 22.844 0.75 21.4167 0.75Z" fill="white"/>
</svg>
