<svg width="24" height="24" viewBox="0 0 24 24" fill="none" xmlns="http://www.w3.org/2000/svg">
<path d="M21.8695 0.75H2.88049C1.71875 0.75 0.75 1.71875 0.75 2.88049V21.8695C0.75 23.0312 1.71875 24 2.88049 24H21.8695C23.0312 24 24 23.0312 24 21.8695V2.88049C24 1.71875 23.0312 0.75 21.8695 0.75ZM7.53125 20.125H3.65625V9.46875H7.53125V20.125ZM5.59375 8.20862C4.43201 8.20862 3.65625 7.43286 3.65625 6.46411C3.65625 5.40076 4.43201 4.625 5.59375 4.625C6.75549 4.625 7.53125 5.40076 7.53125 6.36951C7.53125 7.43286 6.75549 8.20862 5.59375 8.20862ZM21.0938 20.125H17.2188V14.3125C17.2188 12.761 16.1516 12.375 15.864 12.375C15.5726 12.375 14.3125 12.568 14.3125 14.3125C14.3125 14.5055 14.3125 20.125 14.3125 20.125H10.4375V9.46875H14.3125V11.0203C14.8953 10.1461 15.864 9.46875 17.7031 9.46875C19.5422 9.46875 21.0938 10.9219 21.0938 14.3125V20.125Z" fill="white"/>
</svg>
