<svg width="43" height="53" viewBox="0 0 43 53" fill="none" xmlns="http://www.w3.org/2000/svg">
<path d="M18.5912 17.7895L18.5215 17.7646V11.3206L18.5937 11.2559L18.6186 11.2161L42.4272 26.6486L18.5887 17.7969L18.5912 17.7895ZM18.5912 35.5177L18.5887 35.5102L42.4272 26.6586L18.6161 42.0911L18.5937 42.0562H18.5215V35.5426L18.5912 35.5177Z" fill="#0E1817"/>
<path d="M29.5692 1L42.4271 26.6487L18.6185 11.2162L18.5886 11.1962L18.5936 11.1838L29.492 1.07221L29.5692 1ZM42.4271 26.6586L29.5692 52.3073L29.497 52.2376L18.5936 42.1236L18.5886 42.1111L18.616 42.0912L42.4271 26.6586Z" fill="#125655"/>
<path d="M18.5888 11.1972L18.6187 11.2171L18.5938 11.257H1.15687L1 11.1972L5.35487 1.06323L5.37728 1.07319H29.4922L18.5938 11.1848L18.5888 11.1972ZM18.5938 11.257L18.5216 11.3217V11.257H18.5938ZM18.5938 42.0573L18.6162 42.0922L18.5888 42.1121L18.5938 42.1245L29.4972 52.2386H5.37728L5.35487 52.2486L1 42.1121L1.14691 42.0573H18.4444L18.5216 42.1295V42.0573H18.5938Z" fill="#0E7C7B"/>
<path d="M18.5887 17.797L42.4272 26.6487V26.6586L18.5887 35.5103L18.5912 35.5178L18.5215 35.5427V17.7646L18.5912 17.7895L18.5887 17.797Z" fill="#125655"/>
<path d="M18.5216 42.0564V42.1286L18.4445 42.0564H18.5216Z" fill="black"/>
<path d="M18.5217 35.5426V42.0562H18.4445L13.4846 37.43L18.5217 35.5426Z" fill="#082425"/>
<path d="M18.5218 35.5202V35.5426L13.4847 37.43L2.04846 26.6685V26.6386L13.4847 15.8772L18.5218 17.7646V26.6735V35.5202Z" fill="#0E7C7B"/>
<path d="M18.5217 11.3207V17.7646L13.4846 15.8772L18.5217 11.3207Z" fill="#082425"/>
<path d="M18.5214 11.2559V11.3206L13.4843 15.8772L1.15669 11.2559H18.5214ZM18.4442 42.0562H1.14673L13.4843 37.4299L18.4442 42.0562Z" fill="#0F3938"/>
</svg>
