<svg width="44" height="44" viewBox="0 0 44 44" fill="none" xmlns="http://www.w3.org/2000/svg">
<path d="M8.24992 8.28201H35.75V35.7179H8.24992V8.28201Z" fill="url(#paint0_radial)"/>
<path d="M8.24998 8.28203H35.75V35.7179H8.24998V8.28203ZM7 37H37V7H7V37ZM28.225 21.4615C28.8624 21.4615 29.0875 21.4615 29.1499 21.4359C29.1499 21.3462 29.1749 21.282 29.1749 21.2179C29.1749 20.5256 28.8499 19.2436 27.55 19.2436C26.3499 19.2436 25.8375 20.3205 25.7125 21.4615H28.225ZM25.6875 23.2179C25.7125 24.9487 26.5125 26.1154 28.4125 26.1154C29.15 26.1154 29.7875 26.0129 30.45 25.718C30.5375 25.6795 30.6001 25.6923 30.6001 25.8077V27.4103C30.6001 27.5385 30.5626 27.6026 30.4751 27.6667C29.8126 28 28.9875 28.1539 27.9626 28.1539C24.6626 28.1539 23.4251 25.6539 23.4251 22.8719C23.4251 19.8462 24.9501 17.3719 27.6376 17.3719C30.3626 17.3719 31.3126 19.718 31.3126 21.6283C31.3126 22.2437 31.2751 22.7437 31.2126 22.9873C31.1876 23.0898 31.1501 23.1283 31.0501 23.154C30.8001 23.1924 30.0626 23.2437 28.9626 23.2437H25.6875V23.2179ZM18.9876 21.9102C18.6375 20.4872 17.7875 17.3846 17.475 15.8846H17.45C17.1875 17.3846 16.5 19.923 15.9875 21.9102H18.9876ZM15.475 23.9872L14.4875 27.8205C14.4625 27.923 14.425 27.9615 14.3 27.9615H12.4625C12.3375 27.9615 12.3124 27.9231 12.3375 27.7692L15.8875 15.0385C15.95 14.8077 15.9875 14.6282 16.0124 13.9872C16.0124 13.8975 16.0499 13.859 16.1124 13.859H18.7374C18.8249 13.859 18.8624 13.8847 18.8875 13.9872L22.8624 27.7949C22.8874 27.8974 22.8624 27.9615 22.7624 27.9615H20.7C20.6 27.9615 20.5374 27.9231 20.5124 27.8334L19.4874 23.9872H15.475V23.9872Z" fill="#D8A1FF"/>
<defs>
<radialGradient id="paint0_radial" cx="0" cy="0" r="1" gradientUnits="userSpaceOnUse" gradientTransform="translate(17.3071 14.4304) scale(20.9 20.7538)">
<stop stop-color="#442F55" stop-opacity="0.98"/>
<stop offset="1" stop-color="#12002C"/>
</radialGradient>
</defs>
</svg>
