<svg width="44" height="44" viewBox="0 0 44 44" fill="none" xmlns="http://www.w3.org/2000/svg">
<path d="M8.24992 7.28201H35.75V34.7179H8.24992V7.28201Z" fill="url(#paint0_radial)"/>
<path d="M8.24998 7.28203H35.75V34.7179H8.24998V7.28203ZM7 36H37V6H7V36ZM28.225 20.4615C28.8624 20.4615 29.0875 20.4615 29.1499 20.4359C29.1499 20.3462 29.1749 20.282 29.1749 20.2179C29.1749 19.5256 28.8499 18.2436 27.55 18.2436C26.3499 18.2436 25.8375 19.3205 25.7125 20.4615H28.225ZM25.6875 22.2179C25.7125 23.9487 26.5125 25.1154 28.4125 25.1154C29.15 25.1154 29.7875 25.0129 30.45 24.718C30.5375 24.6795 30.6001 24.6923 30.6001 24.8077V26.4103C30.6001 26.5385 30.5626 26.6026 30.4751 26.6667C29.8126 27 28.9875 27.1539 27.9626 27.1539C24.6626 27.1539 23.4251 24.6539 23.4251 21.8719C23.4251 18.8462 24.9501 16.3719 27.6376 16.3719C30.3626 16.3719 31.3126 18.718 31.3126 20.6283C31.3126 21.2437 31.2751 21.7437 31.2126 21.9873C31.1876 22.0898 31.1501 22.1283 31.0501 22.154C30.8001 22.1924 30.0626 22.2437 28.9626 22.2437H25.6875V22.2179ZM18.9876 20.9102C18.6375 19.4872 17.7875 16.3846 17.475 14.8846H17.45C17.1875 16.3846 16.5 18.923 15.9875 20.9102H18.9876ZM15.475 22.9872L14.4875 26.8205C14.4625 26.923 14.425 26.9615 14.3 26.9615H12.4625C12.3375 26.9615 12.3124 26.9231 12.3375 26.7692L15.8875 14.0385C15.95 13.8077 15.9875 13.6282 16.0124 12.9872C16.0124 12.8975 16.0499 12.859 16.1124 12.859H18.7374C18.8249 12.859 18.8624 12.8847 18.8875 12.9872L22.8624 26.7949C22.8874 26.8974 22.8624 26.9615 22.7624 26.9615H20.7C20.6 26.9615 20.5374 26.9231 20.5124 26.8334L19.4874 22.9872H15.475V22.9872Z" fill="#D8A1FF"/>
<defs>
<radialGradient id="paint0_radial" cx="0" cy="0" r="1" gradientUnits="userSpaceOnUse" gradientTransform="translate(17.3071 13.4304) scale(20.9 20.7538)">
<stop stop-color="#442F55" stop-opacity="0.98"/>
<stop offset="1" stop-color="#12002C"/>
</radialGradient>
</defs>
</svg>
