<svg width="459" height="460" fill="none" xmlns="http://www.w3.org/2000/svg"><g clip-path="url(#clip0)"><path d="M44.33 348.687C-34.098 213.008 87.464 96.151 100.013 85.956l314.492 164.697c-9.672 44.965-40.311 141.012-85.485 165.481-56.468 30.586-206.263 68.231-284.69-67.447z" fill="url(#paint0_radial)"/><circle cx="264.041" cy="198.122" r="176.651" fill="#0C153C"/><mask id="a" maskUnits="userSpaceOnUse" x="87" y="21" width="354" height="354"><circle cx="264.041" cy="198.122" r="176.651" fill="#293A96"/></mask><g mask="url(#a)"><ellipse cx="219.116" cy="57.475" rx="176.651" ry="60.429" transform="rotate(12.464 219.116 57.475)" fill="url(#paint1_linear)"/></g><circle cx="250.948" cy="211.216" r="163.558" fill="url(#paint2_radial)"/><path d="M272.077 108.789c26.316-16.037 35.188-35.63 36.335-43.422-63.365-20.741-197.56 51.205-208.279 66.719-10.72 15.515-24.934 87.482-3.646 138.386 21.288 50.904 58.217 86.281 116.424 104.114 46.565 14.266 97.101-3.006 116.549-13.426 78.943-76.285 86.426-211.549 71.255-209.049-18.963 3.125-38.543 28.482-44.603 43.33-17.423 46.816-35.084 74.844-49.59 94.682-14.506 19.837-42.882 34.908-64.136 37.233-21.255 2.325-35.296-2.839-47.553-8.044-15.123-4.578-66.59-45.608-54.672-99.744 11.919-54.135 69.372-80.733 77.756-85.254 8.384-4.521 47.323-21.514 54.16-25.525z" fill="#000" fill-opacity=".61"/><path d="M321.169 43.753s8.997-17.173-8.587-29.027C294.999 2.872 143.839-32.439 52.412 83.114c-23.67 29.924-40.494 65.091-47.675 102.636a232.471 232.471 0 003.898 103.425c8.868 33.184 24.894 64.634 47.272 90.744 25.615 29.893 59.338 52.605 96.222 66.062a231.53 231.53 0 0032.013 9.119 235.037 235.037 0 00125.621-8.511c7.052-2.55 13.953-5.5 20.669-8.837 30.394-14.878 56.731-36.983 77.506-63.586a255.11 255.11 0 0014.498-20.584c33.04-52.082 52.591-126.724 18.648-211.183 0 0-9.544-22.925-37.53-8.928-12.272 6.132-25.167 66.108-27.302 95.811-2.136 29.704-25.623 153.494-129.786 188.288-104.162 34.794-222.253-45.524-206.744-173.409C55.23 116.275 191.695 89.292 257.75 77.856c66.056-11.436 63.419-34.103 63.419-34.103z" fill="url(#paint3_radial)"/><path d="M321.169 43.753s.76 20.198-44.787 30.745c-45.546 10.546-240.49 24.718-240.49 201.364 0 27.219 28.875 138.296 147.741 149.96 118.866 11.664 172.725-101.389 186.616-169.982 13.89-68.593 15.273-128.418 45.539-126.503 0 0-12.219 3.944-18.146 20.79-5.927 16.846-10.547 42.363-18.51 84.976-7.964 42.614-19.81 111.268-85.713 164.77-65.904 53.502-170.325 31.215-211.563-13.929-41.238-45.143-45.964-80.12-45.964-80.12s-18.328-69.421 20.273-126.898c38.601-57.476 98.585-81.921 136.723-91.944C231.026 76.96 302.286 69.3 321.169 43.753z" fill="url(#paint4_linear)"/><g filter="url(#filter0_f)"><path d="M236.353 291.843c-5.22 6.909-47.269 5.925-79.788-18.643-32.52-24.568-43.195-63.417-37.975-70.326 5.22-6.91 24.359 20.737 56.878 45.305s66.105 36.754 60.885 43.664z" fill="#98A2F5" fill-opacity=".5"/></g><g filter="url(#filter1_f)"><path d="M252.364 380.113c-5.22 6.909-77.135 23.148-125.961-13.74-48.827-36.889-41.81-107.622-36.59-114.531 3.364 14.121 16.416 54.829 58.977 88.759 48.827 36.888 78.126 37.907 103.574 39.512z" fill="url(#paint5_linear)"/></g><g filter="url(#filter2_f)"><circle cx="165.768" cy="254.931" r="16.201" fill="#B4C1FF"/></g><g filter="url(#filter3_f)"><circle cx="165.768" cy="254.931" r="11.654" fill="#E1E7FF"/></g><g filter="url(#filter4_f)"><circle cx="165.768" cy="254.931" r="9.54" fill="#fff"/></g></g><defs><filter id="filter0_f" x="77.329" y="161.796" width="199.563" height="173.744" filterUnits="userSpaceOnUse" color-interpolation-filters="sRGB"><feFlood flood-opacity="0" result="BackgroundImageFix"/><feBlend in="SourceGraphic" in2="BackgroundImageFix" result="shape"/><feGaussianBlur stdDeviation="20" result="effect1_foregroundBlur"/></filter><filter id="filter1_f" x="46.129" y="211.842" width="246.235" height="217.838" filterUnits="userSpaceOnUse" color-interpolation-filters="sRGB"><feFlood flood-opacity="0" result="BackgroundImageFix"/><feBlend in="SourceGraphic" in2="BackgroundImageFix" result="shape"/><feGaussianBlur stdDeviation="20" result="effect1_foregroundBlur"/></filter><filter id="filter2_f" x="144.567" y="233.73" width="42.402" height="42.402" filterUnits="userSpaceOnUse" color-interpolation-filters="sRGB"><feFlood flood-opacity="0" result="BackgroundImageFix"/><feBlend in="SourceGraphic" in2="BackgroundImageFix" result="shape"/><feGaussianBlur stdDeviation="2.5" result="effect1_foregroundBlur"/></filter><filter id="filter3_f" x="149.115" y="238.277" width="33.307" height="33.307" filterUnits="userSpaceOnUse" color-interpolation-filters="sRGB"><feFlood flood-opacity="0" result="BackgroundImageFix"/><feBlend in="SourceGraphic" in2="BackgroundImageFix" result="shape"/><feGaussianBlur stdDeviation="2.5" result="effect1_foregroundBlur"/></filter><filter id="filter4_f" x="151.228" y="240.39" width="29.081" height="29.081" filterUnits="userSpaceOnUse" color-interpolation-filters="sRGB"><feFlood flood-opacity="0" result="BackgroundImageFix"/><feBlend in="SourceGraphic" in2="BackgroundImageFix" result="shape"/><feGaussianBlur stdDeviation="2.5" result="effect1_foregroundBlur"/></filter><radialGradient id="paint0_radial" cx="0" cy="0" r="1" gradientUnits="userSpaceOnUse" gradientTransform="rotate(126.782 30.455 169.278) scale(169.433 322.692)"><stop stop-color="#212340"/><stop offset="1" stop-color="#B9BCE8"/></radialGradient><radialGradient id="paint2_radial" cx="0" cy="0" r="1" gradientUnits="userSpaceOnUse" gradientTransform="matrix(-141.46793 145.78997 -198.9395 -193.0418 267.752 186.092)"><stop stop-color="#16226D"/><stop offset="1" stop-color="#A6B7EE" stop-opacity=".47"/></radialGradient><radialGradient id="paint3_radial" cx="0" cy="0" r="1" gradientUnits="userSpaceOnUse" gradientTransform="matrix(-274.4173 -341.45271 1026.8649 -825.26655 429.842 409.044)"><stop stop-color="#A9ABB5"/><stop offset="1" stop-color="#fff"/></radialGradient><linearGradient id="paint1_linear" x1="374.784" y1="73.926" x2="219.116" y2="117.904" gradientUnits="userSpaceOnUse"><stop stop-color="#17236E"/><stop offset="1" stop-color="#17236E" stop-opacity="0"/></linearGradient><linearGradient id="paint4_linear" x1="107293" y1="201136" x2="301594" y2="201136" gradientUnits="userSpaceOnUse"><stop stop-color="#D4D6E5"/><stop offset=".53" stop-color="#CED0E1"/><stop offset="1" stop-color="#F3F3F8"/></linearGradient><linearGradient id="paint5_linear" x1="172.403" y1="314.238" x2="134.093" y2="364.946" gradientUnits="userSpaceOnUse"><stop offset=".368" stop-color="#434EC8"/><stop offset="1" stop-color="#7B87EB"/></linearGradient><clipPath id="clip0"><path fill="#fff" transform="translate(.693 .282)" d="M0 0h458.125v459.668H0z"/></clipPath></defs></svg>