<svg width="44" height="44" viewBox="0 0 44 44" fill="none" xmlns="http://www.w3.org/2000/svg">
<path d="M21.9829 41.8723L10.5482 38.6697L8 9.83585H36L33.4491 38.6653L21.9829 41.8723Z" fill="#264DE4"/>
<path d="M31.2653 36.8294L33.4451 12.1933H22V39.4208L31.2653 36.8294Z" fill="#2965F1"/>
<path d="M13.8417 22.8875L14.1558 26.4238H22V22.8875H13.8417ZM13.2104 15.7298L13.529 19.2662H22V15.7298H13.2104ZM22 32.0718L21.9847 32.0759L18.0808 31.0125L17.8313 28.1921H14.3125L14.8035 33.7447L21.9839 35.7555L22 35.7511V32.0718Z" fill="#EBEBEB"/>
<path d="M14.5896 1.99997H18.835V3.79113H16.365V5.58228H18.8352V7.37333H14.5896V1.99997ZM19.6842 1.99997H23.9297V3.55749H21.4596V3.86897H23.9297V7.45128H19.6843V5.8157H22.1544V5.50422H19.6841V1.99997H19.6842ZM24.7789 1.99997H29.0243V3.55749H26.5543V3.86897H29.0243V7.45128H24.7789V5.8157H27.2489V5.50422H24.779V1.99997H24.7789Z" fill="white"/>
<path d="M30.136 22.8875L30.7687 15.7298H21.988V19.2662H26.9272L26.6083 22.8875H21.988V26.4238H26.3044L25.8974 31.0102L21.9879 32.0748V35.7539L29.174 33.7447L29.2266 33.1472L30.0505 23.8371L30.136 22.8875Z" fill="white"/>
</svg>
