<svg width="48" height="68" viewBox="0 0 48 68" fill="none" xmlns="http://www.w3.org/2000/svg">
<path d="M24.1457 67.0001L5.21803 61.699L1 13.9707H47.348L43.1256 61.6917L24.1457 67.0001V67.0001Z" fill="#264DE4"/>
<path d="M39.5107 58.6529L43.1188 17.873H24.174V62.9424L39.5107 58.6529V58.6529Z" fill="#2965F1"/>
<path d="M10.6696 35.5749L11.1896 41.4286H24.174V35.5749H10.6696ZM9.62463 23.727L10.152 29.5806H24.174V23.727H9.62463V23.727ZM24.174 50.7776L24.1486 50.7844L17.6866 49.0241L17.2735 44.3555H11.4489L12.2617 53.5467L24.1473 56.8752L24.174 56.8679V50.7776Z" fill="#EBEBEB"/>
<path d="M11.9077 1H18.935V3.96487H14.8465V6.92975H18.9354V9.89444H11.9077V1ZM20.3407 1H27.3682V3.57814H23.2795V4.09373H27.3682V10.0235H20.3409V7.31612H24.4295V6.80053H20.3405V1H20.3407ZM28.7738 1H35.8013V3.57814H31.7127V4.09373H35.8013V10.0235H28.7738V7.31612H32.8625V6.80053H28.774V1H28.7738Z" fill="white"/>
<path d="M37.6413 35.5749L38.6886 23.727H24.154V29.5806H32.3299L31.8019 35.5749H24.154V41.4286H31.2989L30.6252 49.0204L24.1538 50.7825V56.8725L36.0489 53.5467L36.1361 52.5577L37.4997 37.1468L37.6413 35.5749V35.5749Z" fill="white"/>
</svg>
