<svg width="44" height="44" viewBox="0 0 44 44" fill="none" xmlns="http://www.w3.org/2000/svg">
<path d="M16.7124 37.6983C19.5965 37.6983 21.9373 35.3575 21.9373 32.4734V27.2485H16.7124C13.8283 27.2485 11.4875 29.5893 11.4875 32.4734C11.4875 35.3575 13.8283 37.6983 16.7124 37.6983Z" fill="#0ACF83"/>
<path d="M11.4875 22.217C11.4875 19.4397 13.8283 17.1856 16.7124 17.1856H21.9373V27.2484H16.7124C13.8283 27.2484 11.4875 24.9943 11.4875 22.217Z" fill="#A259FF"/>
<path d="M11.4875 11.9608C11.4875 9.07665 13.8283 6.7359 16.7124 6.7359H21.9373V17.1857H16.7124C13.8283 17.1857 11.4875 14.8449 11.4875 11.9608Z" fill="#F24E1E"/>
<path d="M21.9372 6.7359H26.9686C29.7459 6.7359 32 9.07665 32 11.9608C32 14.8449 29.7459 17.1857 26.9686 17.1857H21.9372V6.7359Z" fill="#FF7262"/>
<path d="M32 22.217C32 24.9943 29.7459 27.2484 26.9686 27.2484C24.1913 27.2484 21.9372 24.9943 21.9372 22.217C21.9372 19.4397 24.1913 17.1856 26.9686 17.1856C29.7459 17.1856 32 19.4397 32 22.217Z" fill="#1ABCFE"/>
</svg>
