<svg width="44" height="44" viewBox="0 0 44 44" fill="none" xmlns="http://www.w3.org/2000/svg">
<path d="M15.7049 10.7793C15.7049 10.7793 10.5083 16.3544 10.5083 26.1933C10.5083 34.4511 13.7613 38 16.7438 38C18.1294 38 22.6324 37.0165 27.1361 29.4734C32.34 20.7574 31.6399 16.6831 31.6399 16.6831L15.7049 10.7793Z" fill="#FE900D"/>
<path d="M28.3374 9.83302C25.96 9.83302 24.7718 10.4005 24.7718 10.4005C23.3731 7.71857 22.2896 6.42902 18.7938 6.42902C12.5007 6.42902 10.5083 11.019 10.5083 12.3603C10.5083 12.8274 11.3823 13.237 13.4803 13.237C15.5782 13.237 18.235 12.6696 18.235 12.6696C17.8338 13.4362 17.6405 14.3711 17.6405 15.5061C17.6405 18.3426 19.4233 20.6117 21.8007 20.6117C25.3663 20.6117 27.1491 16.641 27.1491 16.641C27.1491 16.641 31.3093 21.1792 32.7778 21.1792C34.1765 21.1792 34.875 19.1683 34.875 16.4856C34.875 14.474 33.2319 9.83302 28.3374 9.83302Z" fill="#4AAE52"/>
<path d="M24.3161 11.8868C24.2065 11.8868 24.096 11.865 23.9896 11.818C23.5795 11.6375 23.3926 11.1599 23.573 10.7511C24.23 9.26402 26.5221 5.68031 28.8483 4.13657C29.2212 3.88724 29.7255 3.98924 29.9741 4.36161C30.2234 4.73318 30.1219 5.23589 29.7483 5.4836C27.6852 6.85329 25.5588 10.2735 25.0601 11.4036C24.9253 11.7063 24.628 11.8868 24.3161 11.8868Z" fill="#4AAE52"/>
<path d="M13.7564 28.2859C13.3479 28.2859 12.9954 27.9783 12.9499 27.5638C12.6924 25.2025 12.9759 22.6428 13.7921 19.956C13.9221 19.5278 14.3761 19.2849 14.805 19.4161C15.2347 19.5456 15.4775 19.9973 15.3467 20.4255C14.5946 22.9026 14.3315 25.2462 14.5646 27.389C14.6133 27.8342 14.2909 28.2333 13.8449 28.2819C13.8149 28.2843 13.7856 28.2859 13.7564 28.2859Z" fill="#FDC82E"/>
</svg>
