<svg width="44" height="44" viewBox="0 0 44 44" fill="none" xmlns="http://www.w3.org/2000/svg">
<path d="M14.7049 8.77933C14.7049 8.77933 9.50833 14.3544 9.50833 24.1933C9.50833 32.4511 12.7613 36 15.7438 36C17.1294 36 21.6324 35.0165 26.1361 27.4734C31.34 18.7574 30.6399 14.6831 30.6399 14.6831L14.7049 8.77933Z" fill="#FE900D"/>
<path d="M27.3374 7.83302C24.96 7.83302 23.7718 8.40049 23.7718 8.40049C22.3731 5.71857 21.2896 4.42902 17.7938 4.42902C11.5007 4.42902 9.50833 9.01895 9.50833 10.3603C9.50833 10.8274 10.3823 11.237 12.4803 11.237C14.5782 11.237 17.235 10.6696 17.235 10.6696C16.8338 11.4362 16.6405 12.3711 16.6405 13.5061C16.6405 16.3426 18.4233 18.6117 20.8007 18.6117C24.3663 18.6117 26.1491 14.641 26.1491 14.641C26.1491 14.641 30.3093 19.1792 31.7778 19.1792C33.1765 19.1792 33.875 17.1683 33.875 14.4856C33.875 12.474 32.2319 7.83302 27.3374 7.83302Z" fill="#4AAE52"/>
<path d="M23.3161 9.88684C23.2065 9.88684 23.096 9.86499 22.9896 9.81803C22.5795 9.63751 22.3926 9.1599 22.573 8.7511C23.23 7.26402 25.5221 3.68031 27.8483 2.13657C28.2212 1.88724 28.7255 1.98924 28.9741 2.36161C29.2234 2.73318 29.1219 3.23589 28.7483 3.4836C26.6852 4.85329 24.5588 8.27348 24.0601 9.40356C23.9253 9.70632 23.628 9.88684 23.3161 9.88684Z" fill="#4AAE52"/>
<path d="M12.7564 26.2859C12.3479 26.2859 11.9954 25.9783 11.9499 25.5638C11.6924 23.2025 11.9759 20.6428 12.7921 17.956C12.9221 17.5278 13.3761 17.2849 13.805 17.4161C14.2347 17.5456 14.4775 17.9973 14.3467 18.4255C13.5946 20.9026 13.3315 23.2462 13.5646 25.389C13.6133 25.8342 13.2909 26.2333 12.8449 26.2819C12.8149 26.2843 12.7856 26.2859 12.7564 26.2859Z" fill="#FDC82E"/>
</svg>
