<svg width="44" height="44" viewBox="0 0 44 44" fill="none" xmlns="http://www.w3.org/2000/svg">
<path d="M35.9999 9.68073L33.4491 37.9393L21.9828 41.0828L10.5482 37.9437L7.99994 9.68073H35.9999Z" fill="#E44D26"/>
<path d="M21.9999 38.68L31.2653 36.1399L33.445 11.9916H21.9999V38.68Z" fill="#F16529"/>
<path d="M17.0412 18.9244H22V15.4581H13.2103L13.2942 16.388L14.1558 25.9403H22V22.474H17.3615L17.0412 18.9244ZM17.8312 27.6736H14.3124L14.8034 33.1162L21.9838 35.0873L22 35.0829V31.4765L21.9846 31.4805L18.0808 30.4381L17.8312 27.6736Z" fill="#EBEBEB"/>
<path d="M10.605 2.00003H12.3864V3.74041H14.0159V2.00003H15.7974V7.27035H14.0161V5.50555H12.3865V7.27035H10.6052V2.00003H10.605ZM18.1398 3.7478H16.5718V2.00003H21.4905V3.7478H19.9215V7.27035H18.1402V3.7478H18.14H18.1398ZM22.2711 2.00003H24.1285L25.271 3.85188L26.4125 2.00003H28.2707V7.27035H26.4966V4.65809L25.271 6.53198H25.2403L24.014 4.65809V7.27035H22.2711V2.00003ZM29.1572 2.00003H30.9391V5.52834H33.4442V7.27035H29.1571V2.00003H29.1572Z" fill="white"/>
<path d="M21.9879 25.9403H26.3043L25.8973 30.4359L21.9878 31.4794V35.0856L29.1739 33.1162L29.2266 32.5306L30.0504 23.4048L30.1359 22.474H21.9879V25.9403ZM21.9879 18.916V18.9244H30.4549L30.5251 18.1454L30.6849 16.388L30.7687 15.4581H21.9879V18.9161V18.916Z" fill="white"/>
</svg>
