<svg width="154" height="36" viewBox="0 0 154 36" fill="none" xmlns="http://www.w3.org/2000/svg">
<path fill-rule="evenodd" clip-rule="evenodd" d="M146.618 3.53049L153 3.56534C153 3.56534 141.135 19.5033 140.166 20.8022C139.851 21.2228 139.373 21.6765 139.131 22.2388C138.518 23.6523 137.889 26.7531 137.889 26.7531L132.049 26.7821C132.049 26.7821 132.958 23.5498 132.92 21.8283C132.887 20.3244 132.113 18.8223 131.678 17.3139C131.239 15.787 130.643 12.7993 130.643 12.7993H136.647L137.475 16.0826L146.618 3.53049" fill="white"/>
<path fill-rule="evenodd" clip-rule="evenodd" d="M134.533 6.89189C135.711 7.59569 136.434 11.4783 136.434 11.4783C136.434 11.4783 130.271 11.5684 126.917 11.5684H124.019L120.5 26.7532H115.117C115.117 26.7532 118.467 10.2511 119.258 7.25929C119.514 6.29056 121.013 6.45684 123.545 6.45684H127.588C130.198 6.45684 133.25 6.12635 134.533 6.89189V6.89189ZM109.476 14.2873C109.476 14.2873 109.644 13.3127 108.907 12.1839C108.278 11.2216 107.697 10.9978 106.04 10.9464C101.364 10.8008 101.455 14.2359 101.455 14.2359L109.476 14.2873ZM114.548 10.3533C115.233 12.8038 113.927 18.5616 113.927 18.5616C113.927 18.5616 107.106 18.4487 103.37 18.5616C102.208 18.5967 100.818 18.4363 100.472 18.9721C99.985 19.7228 100.649 20.8785 101.213 21.3667C101.861 21.9288 103.123 21.9929 103.577 22.0499C106.609 22.4318 112.956 22.1485 112.956 22.1485L111.857 26.9745C111.857 26.9745 102.888 27.4204 98.4015 26.359C97.5157 26.1498 96.6853 25.7272 96.1242 25.128C95.9711 24.964 95.8382 24.7405 95.6934 24.5473C95.5778 24.3931 95.2405 23.8866 95.0892 23.4861C94.0645 20.7796 95.2092 15.5945 96.3313 12.8159C96.4615 12.494 96.6251 12.0855 96.7973 11.7385C97.0124 11.3058 97.1945 10.8173 97.3664 10.5586C97.482 10.3802 97.6253 10.2653 97.7454 10.097C97.8839 9.89791 98.0451 9.70505 98.1944 9.53286C98.6085 9.05676 99.0784 8.72007 99.6436 8.30186C101.513 6.91433 104.895 5.83721 108.959 6.24951C110.489 6.40545 112.799 6.94712 113.927 8.50683C114.229 8.92327 114.379 9.75023 114.548 10.3536V10.3533ZM89.8623 6.43794L95.0811 6.40752C95.0811 6.40752 92.1726 20.0841 90.6903 26.7532H84.6866C80.4909 26.7532 76.7544 27.2683 75.1645 24.2907C73.6224 21.3995 75.0942 16.6451 75.7855 13.4149C76.2741 11.1289 77.3032 6.45655 77.3032 6.45655L82.7104 6.40752C82.7104 6.40752 81.1825 13.6819 80.5467 17.314C80.319 18.615 79.8495 19.8401 80.3399 20.802C80.8056 21.7176 81.4578 21.7832 83.4448 21.8284C84.0744 21.8431 86.1362 21.8284 86.1362 21.8284L89.8623 6.43794V6.43794ZM65.4351 16.2877C65.9815 14.3632 66.7785 12.2763 66.6772 10.5421C66.5676 8.68729 64.9986 6.99851 63.9862 6.6435C60.937 5.57642 58.0823 7.06821 56.9477 8.28503C55.4801 9.86099 54.9831 11.7019 54.4635 14.2362C54.0767 16.1176 53.7597 18.1038 54.4635 19.571C55.7095 22.1651 59.5953 21.5986 63.7791 21.6234C64.4 19.9736 64.9134 18.1206 65.4351 16.2877ZM72.6806 8.69556C73.2765 12.9922 70.9894 17.7349 69.4139 21.8591C71.0204 22.0029 72.4282 21.8369 72.5295 21.9557C72.635 22.1095 71.4527 26.8785 71.0407 26.8909C69.7657 26.9236 65.5408 26.9585 63.7791 26.9585C58.0302 26.9585 52.6522 27.3298 49.9096 24.4962C48.7959 23.345 48.0257 21.3706 47.8392 19.9816C47.5287 17.6628 47.9179 15.1099 48.4604 13.0049C48.9511 11.1044 49.5801 9.31106 50.5306 7.66923C52.9463 3.48951 57.1486 0.386915 64.1929 1.10313C65.5593 1.24253 67.5216 1.83558 68.7474 2.53939C68.832 2.58871 69.1284 2.82262 69.1964 2.86368C70.8526 3.90831 72.3618 6.40132 72.6806 8.69556V8.69556ZM47.2451 6.46275C46.8974 8.03251 46.5497 9.81196 46.1832 11.3631H40.3869C40.836 9.64361 41.1798 7.93416 41.6291 6.43824C43.4838 6.43824 45.2083 6.46275 47.2454 6.46275H47.2451ZM40.1799 12.7997H45.7694C45.0385 16.8093 43.5914 23.277 42.4571 27.7793C41.7471 30.5969 41.273 32.6528 39.3519 34.1404C39.18 34.2739 39.0807 34.2104 38.9377 34.3457C38.5838 34.6803 36.9463 35.0684 36.0399 35.1664C34.566 35.3247 32.8995 35.1871 31.088 35.1502C31.562 33.4328 32.0984 31.3704 32.5208 29.831C36.9364 30.3609 37.0481 26.2237 37.903 22.2389C38.3976 19.9364 39.8965 13.7229 40.1799 12.7997" fill="white"/>
<path fill-rule="evenodd" clip-rule="evenodd" d="M27.1381 23.265L27.0183 23.5728C24.9774 27.5127 21.3606 29.9298 16.2019 30.0364C13.7904 30.0857 11.4926 29.4723 9.99153 28.8054C6.75225 27.3626 4.02752 24.6871 2.53957 21.8284C0.405078 17.7305 0.0201302 12.0301 4.45835 7.7724C4.52688 7.7724 3.91996 8.69565 3.98849 8.69565L3.86633 9.08964C0.668165 19.015 10.5216 27.5209 20.1 26.5481C22.4019 26.3141 25.3373 25.0645 27.1381 23.265Z" fill="#21609B"/>
<path fill-rule="evenodd" clip-rule="evenodd" d="M21.3414 19.1609C23.7512 19.1772 26.2683 18.0608 27.7589 16.4934C26.4548 19.7747 22.6789 21.8837 17.6156 21.213C13.3758 20.6506 9.3371 16.4216 8.92117 12.184C8.61696 9.10001 9.70119 7.25942 11.488 5.02661C10.8671 6.1944 10.635 7.09491 10.5772 7.66936C9.89843 14.3406 15.9533 19.1258 21.3414 19.1609" fill="#21609B"/>
<path fill-rule="evenodd" clip-rule="evenodd" d="M27.5168 10.8748C27.1423 11.7266 24.9854 13.335 24.0329 13.5361C20.2612 14.3327 17.8457 12.5597 16.5804 10.5422C16.3924 10.241 16.0446 9.41815 15.9824 9.20875C15.4917 7.55482 15.7172 5.05325 17.181 3.75845C16.7401 4.98975 16.6757 6.41981 16.9078 7.34955C17.0484 7.91159 17.4769 8.89302 17.9056 9.5103C18.6857 10.6347 19.1805 10.9079 20.1825 11.5051C20.6339 11.7738 21.1181 11.9894 21.3273 12.0485C22.2774 12.3258 24.2835 13.0562 27.5171 10.8748" fill="#21609B"/>
</svg>
