<svg width="44" height="44" viewBox="0 0 44 44" fill="none" xmlns="http://www.w3.org/2000/svg">
<path d="M6 6H38.219V38.219H6V6Z" fill="#F7DF1E"/>
<path d="M14.4716 32.9245L16.9371 31.4324C17.4129 32.2757 17.8456 32.9893 18.8835 32.9893C19.8784 32.9893 20.5058 32.6002 20.5058 31.0864V20.7917H23.5335V31.1292C23.5335 34.2651 21.6952 35.6926 19.0132 35.6926C16.5912 35.6926 15.1852 34.4382 14.4715 32.9243L14.4716 32.9245ZM25.178 32.6001L27.6433 31.1727C28.2923 32.2326 29.1358 33.0111 30.6279 33.0111C31.8826 33.0111 32.6825 32.3838 32.6825 31.5187C32.6825 30.4807 31.8607 30.1129 30.4765 29.5075L29.7198 29.1828C27.5353 28.2531 26.0863 27.0852 26.0863 24.6197C26.0863 22.3488 27.8164 20.6185 30.5199 20.6185C32.4448 20.6185 33.8289 21.2891 34.8237 23.0408L32.4662 24.5549C31.947 23.6249 31.385 23.2573 30.5198 23.2573C29.633 23.2573 29.0707 23.8196 29.0707 24.5549C29.0707 25.4632 29.633 25.8311 30.9306 26.3934L31.6875 26.7177C34.2612 27.8208 35.7102 28.9453 35.7102 31.4755C35.7102 34.2008 33.5692 35.693 30.6927 35.693C27.8813 35.693 26.0645 34.3521 25.1779 32.6002" fill="#0C0C0C"/>
</svg>
