<svg width="55" height="59" viewBox="0 0 55 59" fill="none" xmlns="http://www.w3.org/2000/svg">
<path fill-rule="evenodd" clip-rule="evenodd" d="M28.2542 31.9097C31.8453 30.3531 33.4946 26.18 31.9379 22.5889C30.3813 18.9977 26.2082 17.3485 22.6171 18.9051C19.026 20.4617 17.3767 24.6348 18.9333 28.2259C20.49 31.8171 24.663 33.4663 28.2542 31.9097ZM26.0228 26.7621C26.771 26.4378 27.1146 25.5684 26.7903 24.8202C26.466 24.0721 25.5966 23.7285 24.8484 24.0528C24.1003 24.3771 23.7567 25.2464 24.081 25.9946C24.4053 26.7428 25.2747 27.0864 26.0228 26.7621Z" fill="#EAEAEA"/>
<path fill-rule="evenodd" clip-rule="evenodd" d="M1.87093 18.5642C1.15747 16.9183 1.91339 15.0056 3.55933 14.2922L32.2778 1.84363C33.9238 1.13018 35.8364 1.8861 36.5499 3.53203L52.7565 40.9203C53.4699 42.5662 52.714 44.4789 51.0681 45.1923L22.3495 57.6409C20.7036 58.3543 18.791 57.5984 18.0775 55.9525L1.87093 18.5642ZM37.0846 20.3575C39.8736 26.7916 36.9186 34.2684 30.4845 37.0573C24.0504 39.8463 16.5737 36.8914 13.7847 30.4573C10.9957 24.0232 13.9507 16.5464 20.3848 13.7574C26.8189 10.9684 34.2957 13.9234 37.0846 20.3575ZM23.8473 44.7619C22.7999 45.2159 22.3189 46.4331 22.7729 47.4805L23.595 49.377C24.049 50.4244 25.2661 50.9054 26.3135 50.4514L43.1112 43.1702C44.1586 42.7162 44.6396 41.499 44.1856 40.4516L43.3635 38.5551C42.9095 37.5077 41.6924 37.0267 40.6449 37.4807L23.8473 44.7619Z" fill="#AEAEAE"/>
</svg>
