<svg width="44" height="44" viewBox="0 0 44 44" fill="none" xmlns="http://www.w3.org/2000/svg">
<path d="M20.1809 16.8901L20.1403 16.8756V13.1214L20.1823 13.0837L20.1968 13.0605L34.0675 22.0514L20.1794 16.8945L20.1809 16.8901ZM20.1809 27.2184L20.1794 27.2141L34.0675 22.0572L20.1954 31.048L20.1823 31.0277H20.1403V27.2329L20.1809 27.2184Z" fill="#0E1817"/>
<path d="M26.5766 7.1088L34.0675 22.0515L20.1968 13.0606L20.1794 13.049L20.1823 13.0418L26.5316 7.15086L26.5766 7.1088ZM34.0675 22.0573L26.5766 37L26.5345 36.9594L20.1823 31.067L20.1794 31.0598L20.1953 31.0482L34.0675 22.0573Z" fill="#125655"/>
<path d="M20.1795 13.0496L20.1969 13.0612L20.1824 13.0844H10.0238L9.93243 13.0496L12.4695 7.14563L12.4826 7.15143H26.5317L20.1824 13.0423L20.1795 13.0496ZM20.1824 13.0844L20.1404 13.1221V13.0844H20.1824ZM20.1824 31.0284L20.1955 31.0487L20.1795 31.0603L20.1824 31.0676L26.5346 36.96H12.4826L12.4695 36.9658L9.93243 31.0603L10.018 31.0284H20.0954L20.1404 31.0705V31.0284H20.1824Z" fill="#0E7C7B"/>
<path d="M20.1794 16.8946L34.0675 22.0515V22.0573L20.1794 27.2142L20.1809 27.2186L20.1403 27.2331V16.8757L20.1809 16.8902L20.1794 16.8946Z" fill="#125655"/>
<path d="M20.1404 31.0279V31.07L20.0955 31.0279H20.1404Z" fill="black"/>
<path d="M20.1405 27.233V31.0278H20.0955L17.2059 28.3326L20.1405 27.233Z" fill="#082425"/>
<path d="M20.1405 27.22V27.233L17.2059 28.3326L10.5433 22.0631V22.0456L17.2059 15.7761L20.1405 16.8757V22.066V27.22Z" fill="#0E7C7B"/>
<path d="M20.1405 13.1215V16.8757L17.2059 15.7761L20.1405 13.1215Z" fill="#082425"/>
<path d="M20.1403 13.0838V13.1215L17.2057 15.7762L10.0237 13.0838H20.1403ZM20.0953 31.0278H10.0179L17.2057 28.3326L20.0953 31.0278Z" fill="#0F3938"/>
</svg>
