<svg width="58" height="57" viewBox="0 0 58 57" fill="none" xmlns="http://www.w3.org/2000/svg">
<path d="M0.983032 2H57.0169V55H0.983032V2Z" fill="url(#paint0_radial)"/>
<path d="M2.41663 2.43586H55.5834V54.564H2.41663V2.43586ZM0 57H58V0H0V57ZM39.1017 23.3846C37.1925 23.3846 36.5401 24.3589 36.5401 25.1627C36.5401 26.0396 36.975 26.6486 39.5367 27.9884C43.3309 29.8397 44.5151 31.6179 44.5151 34.2243C44.5151 38.1217 41.5667 40.2166 37.5792 40.2166C35.4767 40.2166 33.6641 39.7781 32.625 39.1692C32.4559 39.0961 32.4317 38.9744 32.4317 38.7794V35.1986C32.4317 34.9551 32.5525 34.8819 32.7218 35.0038C34.2442 36.0026 35.9842 36.441 37.5792 36.441C39.4884 36.441 40.2859 35.6371 40.2859 34.5409C40.2859 33.664 39.73 32.8846 37.2891 31.6179C33.8574 29.9615 32.4317 28.2807 32.4317 25.4795C32.4317 22.3371 34.8726 19.7307 39.1017 19.7307C41.18 19.7307 42.63 20.0475 43.4275 20.4128C43.6208 20.5346 43.6691 20.7294 43.6691 20.8999V24.237C43.6691 24.4319 43.5483 24.5537 43.3066 24.4806C42.2433 23.7987 40.6725 23.3846 39.1017 23.3846V23.3846ZM18.3183 26.2833C18.8742 26.332 19.3092 26.332 20.2758 26.332C23.1034 26.332 25.7617 25.3333 25.7617 21.4603C25.7617 18.3667 23.8525 16.8077 20.6384 16.8077C19.6717 16.8077 18.7533 16.8564 18.3183 16.8807V26.2833ZM14.0167 13.3487C14.0167 13.1782 14.3551 13.0563 14.5483 13.0563C16.0951 12.9832 18.3909 12.9345 20.7834 12.9345C27.4775 12.9345 30.0874 16.6371 30.0874 21.3628C30.0874 27.5499 25.6408 30.205 20.1792 30.205C19.2609 30.205 18.9468 30.1563 18.2941 30.1563V39.5102C18.2941 39.705 18.2217 39.8024 18.0042 39.8024H14.3067C14.1134 39.8024 14.0166 39.7294 14.0166 39.5102V13.3487H14.0167Z" fill="#31C5F0"/>
<defs>
<radialGradient id="paint0_radial" cx="0" cy="0" r="1" gradientUnits="userSpaceOnUse" gradientTransform="translate(19.4379 13.8773) scale(42.5857 40.0917)">
<stop stop-color="#34364E" stop-opacity="0.98"/>
<stop offset="1" stop-color="#0C0824"/>
</radialGradient>
</defs>
</svg>
