<svg width="44" height="44" viewBox="0 0 44 44" fill="none" xmlns="http://www.w3.org/2000/svg">
<path d="M7.50848 8.05267H36.4915V35.9474H7.50848V8.05267Z" fill="url(#paint0_radial)"/>
<path d="M8.24998 8.28203H35.75V35.7179H8.24998V8.28203ZM7 37H37V7H7V37ZM27.225 19.3077C26.2375 19.3077 25.9 19.8205 25.9 20.2435C25.9 20.7051 26.125 21.0256 27.45 21.7307C29.4125 22.7051 30.025 23.641 30.025 25.0128C30.025 27.0641 28.5 28.1666 26.4375 28.1666C25.35 28.1666 24.4125 27.9358 23.875 27.6154C23.7875 27.5769 23.775 27.5128 23.775 27.4102V25.5256C23.775 25.3974 23.8375 25.3589 23.925 25.423C24.7125 25.9487 25.6125 26.1795 26.4375 26.1795C27.425 26.1795 27.8375 25.7564 27.8375 25.1794C27.8375 24.7179 27.55 24.3077 26.2875 23.641C24.5125 22.7692 23.775 21.8846 23.775 20.4102C23.775 18.7564 25.0375 17.3846 27.225 17.3846C28.3 17.3846 29.05 17.5513 29.4625 17.7436C29.5625 17.8077 29.5875 17.9102 29.5875 17.9999V19.7563C29.5875 19.8589 29.525 19.923 29.4 19.8845C28.85 19.5256 28.0375 19.3077 27.225 19.3077ZM16.475 20.8333C16.7625 20.8589 16.9875 20.8589 17.4875 20.8589C18.9501 20.8589 20.325 20.3333 20.325 18.2949C20.325 16.6667 19.3375 15.8461 17.675 15.8461C17.175 15.8461 16.7 15.8718 16.475 15.8846V20.8333ZM14.25 14.0256C14.25 13.9359 14.4251 13.8717 14.525 13.8717C15.325 13.8333 16.5125 13.8076 17.75 13.8076C21.2125 13.8076 22.5625 15.7564 22.5625 18.2436C22.5625 21.4999 20.2625 22.8974 17.4375 22.8974C16.9625 22.8974 16.8 22.8718 16.4625 22.8718V27.7948C16.4625 27.8974 16.425 27.9487 16.3125 27.9487H14.4C14.3 27.9487 14.25 27.9102 14.25 27.7948V14.0256H14.25Z" fill="#31C5F0"/>
<defs>
<radialGradient id="paint0_radial" cx="0" cy="0" r="1" gradientUnits="userSpaceOnUse" gradientTransform="translate(17.0541 14.3039) scale(22.0271 21.1009)">
<stop stop-color="#34364E" stop-opacity="0.98"/>
<stop offset="1" stop-color="#0C0824"/>
</radialGradient>
</defs>
</svg>
