<svg width="58" height="57" viewBox="0 0 58 57" fill="none" xmlns="http://www.w3.org/2000/svg">
<path d="M0 0H58V57H0V0Z" fill="#00E4BB"/>
<path d="M2.41663 2.43604H55.5833V54.5642H2.41663V2.43604Z" fill="#002620"/>
<path d="M16.095 32.8848L14.2341 39.8515C14.1858 40.0464 14.1133 40.1925 13.8716 40.1925H10.4158C10.1741 40.1925 10.15 40.1194 10.1741 39.8515L16.8683 16.3694C16.9891 15.931 17.0616 15.5656 17.11 14.372C17.11 14.2015 17.1825 14.1284 17.3033 14.1284H22.2333C22.3783 14.1284 22.475 14.1771 22.4991 14.372L30.015 39.8759C30.0633 40.0707 30.015 40.1925 29.8216 40.1925H25.9308C25.7375 40.1925 25.6166 40.0464 25.5925 39.9002L23.6591 32.8848H16.095ZM22.6683 28.9874C22.0158 26.3566 20.445 20.6323 19.865 17.8553H19.8166C19.3333 20.6323 18.0766 25.3092 17.11 28.9874H22.6683ZM46.8833 36.3682C46.8833 36.6361 46.9316 37.4643 47.0041 38.8041C47.0041 38.9502 46.98 39.0476 46.835 39.072C44.7808 39.8515 42.4366 40.6797 39.5608 40.6797C36.0325 40.6797 32.625 39.3156 32.625 33.8105V21.2656C32.625 21.0707 32.6975 20.9489 32.8908 20.9489H36.685C36.8783 20.9489 36.9508 21.0707 36.9508 21.2656V33.2989C36.9508 35.613 37.9416 36.8553 40.3583 36.8553C41.325 36.8553 42.1466 36.6605 42.7508 36.4169V21.2656C42.7508 21.0707 42.8233 20.9489 43.0166 20.9489H46.5691C46.8108 20.9489 46.835 21.0707 46.835 21.2656L46.8833 36.3682Z" fill="#00E4BB"/>
</svg>
