<svg width="51" height="57" viewBox="0 0 51 57" fill="none" xmlns="http://www.w3.org/2000/svg">
<path d="M49.9518 17.1526C49.9518 16.2337 49.756 15.405 49.3492 14.712C48.9575 14.019 48.3699 13.4465 47.5865 12.9945C41.0781 9.24312 34.5547 5.49178 28.0462 1.74037C26.2835 0.730954 24.5961 0.761099 22.8485 1.78556C20.2572 3.30724 7.27049 10.7497 3.41368 12.9945C1.81667 13.9135 1.04834 15.3297 1.04834 17.1678V39.8266C1.04834 40.7306 1.24418 41.5291 1.62083 42.2221C2.01258 42.9302 2.61521 43.5329 3.41368 43.9999C7.2856 46.2447 20.2572 53.6721 22.8485 55.2088C24.5961 56.2331 26.2986 56.2783 28.0462 55.254C34.5547 51.4876 41.0781 47.7513 47.5865 43.9999C48.4001 43.5329 48.9877 42.9453 49.3793 42.2221C49.756 41.5291 49.9518 40.7306 49.9518 39.8266V17.1526Z" fill="#9A4993"/>
<path d="M25.5603 28.4069L1.59058 42.2071C1.98233 42.9152 2.58496 43.5178 3.38343 43.9849C7.25535 46.2297 20.227 53.6571 22.8183 55.1938C24.5659 56.2183 26.2684 56.2635 28.016 55.239C34.5244 51.4725 41.0479 47.7362 47.5563 43.9849C48.3698 43.5178 48.9574 42.9303 49.3491 42.2071L25.5603 28.4069Z" fill="#6A1577"/>
<path d="M18.4641 32.4897C19.8653 34.9303 22.4867 36.5725 25.4848 36.5725C28.513 36.5725 31.1495 34.9153 32.5356 32.4445L25.5601 28.4069L18.4641 32.4897Z" fill="#6A1577"/>
<path d="M49.9519 17.1527C49.9519 16.2337 49.756 15.4051 49.3493 14.712L25.5604 28.4069L49.3794 42.2071C49.756 41.5141 49.9519 40.7156 49.9519 39.8117V17.1527Z" fill="#813084"/>
<path d="M32.5359 32.4444C31.1499 34.9001 28.5134 36.5724 25.4851 36.5724C22.472 36.5724 19.8506 34.9302 18.4645 32.4896C17.7865 31.2994 17.3948 29.9435 17.3948 28.4821C17.3948 24.0076 21.0106 20.3918 25.4851 20.3918C28.4681 20.3918 31.0746 22.0189 32.4757 24.4294L39.5415 20.3616C36.7242 15.5105 31.4813 12.2412 25.4701 12.2412C16.4908 12.2412 9.22919 19.518 9.22919 28.4821C9.22919 31.4199 10.0126 34.1921 11.3836 36.5724C14.1858 41.4387 19.4588 44.723 25.4851 44.723C31.5265 44.723 36.7996 41.4236 39.6018 36.5273L32.5359 32.4444ZM41.4699 24.6403H39.8578V32.4293H41.4699V24.6403ZM45.0405 24.6403H43.4284V32.4293H45.0405V24.6403Z" fill="white"/>
<path d="M46.3512 25.951H38.5621V27.5631H46.3512V25.951ZM46.3512 29.5065H38.5621V31.1186H46.3512V29.5065Z" fill="white"/>
</svg>
