<svg width="40" height="60" viewBox="0 0 40 60" fill="none" xmlns="http://www.w3.org/2000/svg">
<path d="M10.7875 59C16.1902 59 20.575 54.6152 20.575 49.2125V39.425H10.7875C5.3848 39.425 1 43.8098 1 49.2125C1 54.6152 5.3848 59 10.7875 59Z" fill="#0ACF83"/>
<path d="M1 30C1 24.7974 5.3848 20.575 10.7875 20.575H20.575V39.425H10.7875C5.3848 39.425 1 35.2026 1 30Z" fill="#A259FF"/>
<path d="M1 10.7875C1 5.3848 5.3848 1 10.7875 1H20.575V20.575H10.7875C5.3848 20.575 1 16.1902 1 10.7875Z" fill="#F24E1E"/>
<path d="M20.575 1H30C35.2026 1 39.425 5.3848 39.425 10.7875C39.425 16.1902 35.2026 20.575 30 20.575H20.575V1Z" fill="#FF7262"/>
<path d="M39.425 30C39.425 35.2026 35.2026 39.425 30 39.425C24.7974 39.425 20.575 35.2026 20.575 30C20.575 24.7974 24.7974 20.575 30 20.575C35.2026 20.575 39.425 24.7974 39.425 30Z" fill="#1ABCFE"/>
</svg>
