<svg width="45" height="62" viewBox="0 0 45 62" fill="none" xmlns="http://www.w3.org/2000/svg">
<path d="M10.1705 12.9635C10.1705 12.9635 1 22.8019 1 40.1646C1 54.7372 6.7405 61 12.0037 61C14.449 61 22.3954 59.2643 30.3432 45.9531C39.5266 30.5718 38.291 23.3819 38.291 23.3819L10.1705 12.9635Z" fill="#FE900D"/>
<path d="M32.4631 11.2936C28.2677 11.2936 26.1708 12.295 26.1708 12.295C23.7026 7.56218 21.7905 5.2865 15.6214 5.2865C4.51597 5.2865 1 13.3864 1 15.7535C1 16.5778 2.54227 17.3006 6.24457 17.3006C9.94687 17.3006 14.6353 16.2992 14.6353 16.2992C13.9272 17.6521 13.5861 19.302 13.5861 21.3049C13.5861 26.3105 16.7323 30.3147 20.9276 30.3147C27.22 30.3147 30.3661 23.3077 30.3661 23.3077C30.3661 23.3077 37.7077 31.3162 40.2991 31.3162C42.7673 31.3162 44 27.7676 44 23.0334C44 19.4835 41.1004 11.2936 32.4631 11.2936Z" fill="#4AAE52"/>
<path d="M25.3667 14.918C25.1732 14.918 24.9783 14.8794 24.7905 14.7965C24.0667 14.478 23.737 13.6351 24.0552 12.9137C25.2148 10.2895 29.2597 3.96525 33.3647 1.241C34.0226 0.801005 34.9127 0.981003 35.3513 1.63814C35.7914 2.29384 35.6122 3.18097 34.9529 3.61811C31.3122 6.03522 27.5597 12.0709 26.6797 14.0651C26.4417 14.5994 25.9171 14.918 25.3667 14.918Z" fill="#4AAE52"/>
<path d="M6.73194 43.8575C6.01097 43.8575 5.3889 43.3147 5.30863 42.5833C4.85427 38.4162 5.3545 33.8991 6.795 29.1577C7.02434 28.402 7.82557 27.9735 8.58237 28.2049C9.34061 28.4334 9.76917 29.2306 9.53841 29.9863C8.21114 34.3577 7.74674 38.4933 8.1581 42.2747C8.2441 43.0604 7.67507 43.7647 6.88817 43.8504C6.83514 43.8547 6.78354 43.8575 6.73194 43.8575Z" fill="#FDC82E"/>
</svg>
