<svg width="48" height="66" viewBox="0 0 48 66" fill="none" xmlns="http://www.w3.org/2000/svg">
<path d="M47.348 13.7137L43.1256 60.4898L24.1457 65.693L5.21803 60.4969L1 13.7137H47.348Z" fill="#E44D26"/>
<path d="M24.1741 61.7157L39.5109 57.5112L43.119 17.5388H24.1741V61.7157Z" fill="#F16529"/>
<path d="M15.9659 29.0145H24.1741V23.2767H9.62476L9.76356 24.8161L11.1897 40.6278H24.1741V34.8901H16.4962L15.9659 29.0145V29.0145ZM17.2736 43.4968H11.449L12.2618 52.506L24.1474 55.7686L24.1741 55.7614V49.7917L24.1487 49.7984L17.6867 48.0729L17.2736 43.4968V43.4968Z" fill="#EBEBEB"/>
<path d="M5.31213 1H8.26077V3.88083H10.9582V1H13.907V9.72388H10.9583V6.80263H8.26096V9.72388H5.31232V1H5.31213ZM17.7844 3.89305H15.1889V1H23.3306V3.89305H20.7335V9.72388H17.7849V3.89305H17.7847H17.7844ZM24.6227 1H27.6973L29.5885 4.06534L31.478 1H34.5538V9.72388H31.6172V5.39985L29.5885 8.50166H29.5377L27.5078 5.39985V9.72388H24.6227V1ZM36.0212 1H38.9708V6.84035H43.1174V9.72388H36.0211V1H36.0212Z" fill="white"/>
<path d="M24.1541 40.6278H31.299L30.6253 48.0693L24.1539 49.7966V55.7659L36.049 52.506L36.1362 51.5366L37.4999 36.4308L37.6414 34.8901H24.1541V40.6278ZM24.1541 29.0005V29.0145H38.1693L38.2856 27.7249L38.5501 24.8161L38.6888 23.2767H24.1541V29.0007V29.0005Z" fill="white"/>
</svg>
