<svg width="59" height="59" viewBox="0 0 59 59" fill="none" xmlns="http://www.w3.org/2000/svg">
<g clip-path="url(#clip0)">
<path d="M0 0H59.4038V59.4038H0V0Z" fill="white"/>
<path d="M15.6195 49.6421L20.1653 46.891C21.0424 48.4459 21.8402 49.7616 23.7539 49.7616C25.5882 49.7616 26.7449 49.0441 26.7449 46.2531V27.2722H32.3273V46.332C32.3273 52.1138 28.938 54.7457 23.9931 54.7457C19.5274 54.7457 16.9352 52.4329 15.6193 49.6416L15.6195 49.6421ZM35.3594 49.0439L39.9047 46.4122C41.1014 48.3663 42.6566 49.8017 45.4077 49.8017C47.721 49.8017 49.1958 48.6452 49.1958 47.0501C49.1958 45.1362 47.6806 44.4582 45.1285 43.342L43.7332 42.7434C39.7056 41.0292 37.0341 38.8759 37.0341 34.3301C37.0341 30.143 40.224 26.9529 45.2086 26.9529C48.7575 26.9529 51.3095 28.1892 53.1436 31.4191L48.797 34.2106C47.8398 32.496 46.8034 31.8182 45.2084 31.8182C43.5734 31.8182 42.5366 32.855 42.5366 34.2106C42.5366 35.8853 43.5734 36.5635 45.9658 37.6003L47.3613 38.1983C52.1066 40.2322 54.7782 42.3055 54.7782 46.9706C54.7782 51.9953 50.8306 54.7464 45.5272 54.7464C40.3435 54.7464 36.9939 52.2742 35.3592 49.0441" fill="black"/>
</g>
<defs>
<clipPath id="clip0">
<rect width="59" height="59" fill="white"/>
</clipPath>
</defs>
</svg>
