<svg width="52" height="52" viewBox="0 0 52 52" fill="none" xmlns="http://www.w3.org/2000/svg">
<path d="M30.6881 26.0914H35.1542V16.7936H30.6881V26.0914ZM30.6881 26.0914H35.1542V16.7936H30.6881V26.0914ZM34.658 0H0V34.658C0 44.217 7.75691 52 17.342 52H52V17.342C52 7.75691 44.2431 0 34.658 0ZM20.3194 38.1055H16.6891L12.0141 13.6595H15.6705L18.3867 30.3747C18.4129 30.8448 18.439 31.55 18.4912 32.4641C18.4912 31.994 18.5173 31.2888 18.5957 30.3747L21.338 13.6595H24.9945L20.3194 38.1055ZM38.8368 26.9533C38.8368 28.4681 38.1055 29.2255 36.6168 29.2255H30.7142V38.0532H27.0578V13.6595H36.6168C38.1055 13.6595 38.8368 14.4169 38.8368 15.9056V26.9533ZM30.6881 26.0914H35.1542V16.7936H30.6881V26.0914Z" fill="white"/>
</svg>
